<svg xmlns="http://www.w3.org/2000/svg" width="89.164" height="82.317" viewBox="0 0 89.164 82.317">
  <g id="Group_203" data-name="Group 203" transform="translate(-5092.333 -3830.56)">
    <path id="Path_301" data-name="Path 301" d="M5092.333,3867.546c.165-.668.305-1.343.5-2a13.31,13.31,0,0,1,8.835-9.313,1.409,1.409,0,0,0,.926-1.006c5-13.434,14.521-21.686,28.632-24.144,16.909-2.944,33.447,6.839,39.576,23.074a3.774,3.774,0,0,0,2.366,2.485,13.5,13.5,0,0,1,8.233,13.886,13.648,13.648,0,0,1-11.514,12.121,18.739,18.739,0,0,1-2.691.154q-29.372.012-58.745.006h-1.2c.106.415.168.721.262,1.017q2.667,8.4,5.342,16.806a7.028,7.028,0,0,0,7.136,5.243q16.928.009,33.854,0a7.031,7.031,0,0,0,7.091-5.189c.532-1.654,1.029-3.319,1.581-4.966a3.472,3.472,0,1,1,6.611,2.124,54.585,54.585,0,0,1-2.319,6.817c-2.409,5.146-6.582,8.053-12.274,8.124-11.689.146-23.382.095-35.072.029a13.783,13.783,0,0,1-13.211-9.981q-3.33-10.382-6.591-20.784a2.528,2.528,0,0,0-1.1-1.452,13.415,13.415,0,0,1-6.066-9.432,3.156,3.156,0,0,0-.155-.483Zm44.477,8.3q15.141,0,30.282,0a13.975,13.975,0,0,0,1.476-.064,6.663,6.663,0,0,0,.613-13.148c-.4-.083-.806-.1-1.2-.2-1.806-.433-2.447-1.8-2.894-3.437-4.1-15.025-19.691-24.373-34.776-20.648-11.28,2.786-18.473,10.028-21.749,21.149a3.8,3.8,0,0,1-3.436,3.045,6.684,6.684,0,0,0,1.228,13.3Q5121.583,3875.851,5136.81,3875.844Z" fill="#e57c00"/>
    <path id="Path_302" data-name="Path 302" d="M5123.2,3898.56a3.809,3.809,0,0,1-.529-.041c-2.186-.429-2.731-2.181-3.207-3.989a3.459,3.459,0,0,1,5.57-3.579,5.443,5.443,0,0,1,1.606,4.912A3.3,3.3,0,0,1,5123.2,3898.56Z" fill="#e57c00"/>
    <path id="Path_303" data-name="Path 303" d="M5150.47,3898.559a3.423,3.423,0,0,1-3.338-4.2,15.794,15.794,0,0,1,.606-1.991,3.468,3.468,0,0,1,6.6,2.12,16,16,0,0,1-.606,1.9A3.4,3.4,0,0,1,5150.47,3898.559Z" fill="#e57c00"/>
    <path id="Path_304" data-name="Path 304" d="M5140.442,3894.375a12.064,12.064,0,0,1-.231,1.711,3.411,3.411,0,0,1-3.813,2.45,3.467,3.467,0,0,1-2.972-3.257c-.028-.579-.022-1.16,0-1.74a3.478,3.478,0,0,1,6.953-.042c.012.29,0,.58,0,.87Z" fill="#e57c00"/>
    <path id="Path_305" data-name="Path 305" d="M5118.636,3867.567a3.448,3.448,0,0,1-3.47-3.481,3.473,3.473,0,0,1,6.946.016A3.441,3.441,0,0,1,5118.636,3867.567Z" fill="#e57c00"/>
    <path id="Path_306" data-name="Path 306" d="M5133.632,3858.157a3.459,3.459,0,1,1-3.309-3.531A3.45,3.45,0,0,1,5133.632,3858.157Z" fill="#e57c00"/>
  </g>
</svg>
