<svg xmlns="http://www.w3.org/2000/svg" width="42.213" height="54.89" viewBox="0 0 42.213 54.89">
  <g id="Group_833" data-name="Group 833" transform="translate(-5806.48 -5297.842)">
    <path id="Path_1331" data-name="Path 1331" d="M5817.382,5318.012a3.941,3.941,0,0,1,.577-6.419c-.084-.194-.166-.4-.259-.592-1.327-2.814-2.646-5.631-4-8.434a.745.745,0,0,1,.126-.973c.531-.563,1-1.181,1.558-1.719a6.3,6.3,0,0,1,7.165-1.493c.618.238,1.245.456,1.853.718a8.162,8.162,0,0,0,6.4.032,31.9,31.9,0,0,1,3.134-1.057,6.006,6.006,0,0,1,5.728,1.343,23.127,23.127,0,0,1,2.263,2.412.761.761,0,0,1,0,.668c-1.459,2.872-2.94,5.734-4.416,8.6-.084.163-.167.327-.273.536a3.937,3.937,0,0,1,1.919,3.055,3.857,3.857,0,0,1-1.4,3.307c.85.719,1.727,1.367,2.5,2.126a29.018,29.018,0,0,1,7.351,12.916,23.067,23.067,0,0,1,.884,9.888c-.547,3.663-2.1,6.7-5.518,8.5a11.447,11.447,0,0,1-5.381,1.277c-6.674.027-13.348.046-20.022,0a10.6,10.6,0,0,1-7.893-3.152,11.5,11.5,0,0,1-3-6.635,25.426,25.426,0,0,1,1.83-12.714,27.5,27.5,0,0,1,6.372-10.048C5815.652,5319.4,5816.525,5318.739,5817.382,5318.012Zm10.16,32.056c2.046,0,4.093.013,6.139,0,1.676-.015,3.364.044,5.026-.126a7.312,7.312,0,0,0,6.612-5.144,13.463,13.463,0,0,0,.708-4.786,27.945,27.945,0,0,0-8.113-18.469,9.275,9.275,0,0,0-6.847-2.7c-2.522.1-5.051.011-7.577.03a8.257,8.257,0,0,0-1.806.185,10.826,10.826,0,0,0-5.384,3.408,26.828,26.828,0,0,0-6.081,10.963,20.334,20.334,0,0,0-.772,9.98,7.535,7.535,0,0,0,4.581,5.946,10.811,10.811,0,0,0,4.167.714Zm.03-38.935c2.157,0,4.314.007,6.471-.011a.755.755,0,0,0,.575-.256q2.143-4.083,4.233-8.194a.463.463,0,0,0,.013-.386,4.115,4.115,0,0,0-3.955-1.7,26.04,26.04,0,0,0-3.3,1.077,10.3,10.3,0,0,1-5.912.58,30.624,30.624,0,0,1-3.914-1.317,3.9,3.9,0,0,0-4.879,1.145.578.578,0,0,0-.141.763q1.884,3.935,3.728,7.888a.619.619,0,0,0,.664.419C5823.3,5311.125,5825.434,5311.133,5827.572,5311.133Zm.03,5.076h3.811c1.289,0,2.578.014,3.866-.007a1.209,1.209,0,0,0,1.234-1.223,1.245,1.245,0,0,0-1.223-1.187c-.129-.008-.258,0-.387,0h-14.636a3.7,3.7,0,0,0-.551.017,1.2,1.2,0,0,0-.971,1.646,1.26,1.26,0,0,0,1.29.759Q5823.82,5316.2,5827.6,5316.209Z" fill="#575756"/>
    <path id="Path_1332" data-name="Path 1332" d="M5828.9,5343.347v2.355h-2.648c0-.637-.017-1.291.006-1.944.012-.327-.087-.466-.414-.579a4.824,4.824,0,0,1-3.412-3.716,6.04,6.04,0,0,1-.061-.737h2.57a2.712,2.712,0,0,0,3.848,1.826,2.164,2.164,0,0,0,1.241-1.264,1.627,1.627,0,0,0-1.039-2.259c-.836-.275-1.708-.443-2.562-.666-.355-.093-.71-.192-1.057-.313a4.013,4.013,0,0,1-2.955-3.378,4.468,4.468,0,0,1,1.781-4.435,17.147,17.147,0,0,1,2.057-1.152v-2.247h2.634v2.374a5.291,5.291,0,0,1,3.209,2.257,4.058,4.058,0,0,1,.677,2.325h-2.6a2.22,2.22,0,0,0-1.426-1.83,2.862,2.862,0,0,0-2.313-.007,2.032,2.032,0,0,0-1.406,1.813,1.459,1.459,0,0,0,1.172,1.746c.768.251,1.565.41,2.349.611.339.087.682.159,1.014.266a4.14,4.14,0,0,1,3.213,3.837,4.726,4.726,0,0,1-2.928,4.751C5829.549,5343.113,5829.236,5343.219,5828.9,5343.347Z" fill="#575756"/>
  </g>
</svg>
