<svg xmlns="http://www.w3.org/2000/svg" width="109.756" height="104.13" viewBox="0 0 109.756 104.13">
  <g id="Group_210" data-name="Group 210" transform="translate(-4146.411 -3202.837)">
    <path id="Path_312" data-name="Path 312" d="M4146.411,3302.679c.768-2.058,2.291-2.8,4.428-2.758,4.07.071,8.142.02,12.213.02h1.462c-.471-.311-.678-.472-.905-.593a19.8,19.8,0,0,1-10.621-14.25,71.6,71.6,0,0,1-.757-9.811c-.422-8.344-.78-16.692-1.179-25.037-.135-2.819,1.215-4.3,4.041-4.3q37.766-.009,75.53,0c2.782,0,4.162,1.423,4.065,4.189-.076,2.177-.215,4.351-.318,6.527-.019.417,0,.836,0,1.376,1.611,0,3.174.007,4.737,0,2.679-.015,5.344-.051,7.917.943,5.976,2.307,9.926,8.793,9.014,14.905-1.051,7.05-6.334,12.169-13.107,12.532-3.17.17-6.353.087-9.531.1-.573,0-.979.046-1.2.731a20.178,20.178,0,0,1-10.438,12.3c-.112.058-.214.137-.53.342.584.025.922.053,1.26.053,4.357,0,8.714-.007,13.071.012a6.771,6.771,0,0,1,1.9.23,3.44,3.44,0,0,1-.113,6.554,7.25,7.25,0,0,1-1.9.2q-42.319.014-84.637.029c-2.151,0-3.655-.719-4.4-2.788Zm11.859-49.7c0,.979-.036,1.866,0,2.748.4,8.379.869,16.755,1.188,25.137.313,8.226,6.038,13.875,14.274,13.883q10.819.011,21.635,0c5.891,0,11.783.068,17.672-.031a13.465,13.465,0,0,0,13.1-12.668c.457-8.411.847-16.827,1.245-25.242.06-1.262.008-2.529.008-3.828Zm75.019,26.551c2.094,0,4.052.019,6.008-.007a26.621,26.621,0,0,0,3.948-.176,7.113,7.113,0,0,0,5.879-7.018c.041-3.391-2.33-6.69-5.647-7.068a85.33,85.33,0,0,0-9.5-.075C4233.751,3269.845,4233.524,3274.613,4233.289,3279.534Z" fill="#fff"/>
    <path id="Path_313" data-name="Path 313" d="M4175.388,3227.257a15.992,15.992,0,0,1,3.928-10.742c1.129-1.288,2.221-2.609,3.315-3.927a16.865,16.865,0,0,0,3.622-7.069,3.32,3.32,0,0,1,4.26-2.521,3.436,3.436,0,0,1,2.494,3.948,20.261,20.261,0,0,1-4.174,9.04c-1.335,1.719-2.754,3.374-4.177,5.022a8.989,8.989,0,0,0-.1,11.841,11.748,11.748,0,0,0,1.788,1.518,3.5,3.5,0,0,1,.906,4.834,3.456,3.456,0,0,1-4.835.905,14.857,14.857,0,0,1-6.855-10.97C4175.452,3228.4,4175.422,3227.646,4175.388,3227.257Z" fill="#fff"/>
    <path id="Path_314" data-name="Path 314" d="M4192.467,3228.024c.028-5.167,1.949-8.771,4.519-12.113a16.074,16.074,0,0,1,1.238-1.476,18.065,18.065,0,0,0,5.015-9.027,3.457,3.457,0,0,1,6.709,1.65,21.944,21.944,0,0,1-5.163,10.529,44.65,44.65,0,0,0-3.754,4.792c-2.593,4.061-1.922,8.222,1.672,11.435.292.262.595.514.88.783a3.485,3.485,0,0,1,.464,4.813,3.366,3.366,0,0,1-4.788.585C4195.141,3236.746,4192.66,3232.58,4192.467,3228.024Z" fill="#fff"/>
  </g>
</svg>
