<svg xmlns="http://www.w3.org/2000/svg" width="196.246" height="196.047" viewBox="0 0 196.246 196.047">
  <g id="Group_193" data-name="Group 193" transform="translate(-4433.622 -10423.645)">
    <path id="Path_280" data-name="Path 280" d="M4531.885,10619.691c-54.158.141-98.175-43.5-98.263-97.43-.09-54.808,43.035-98.312,97.752-98.614a98.023,98.023,0,1,1,.511,196.044Zm95.448-98.018a95.972,95.972,0,0,0-95.466-95.79c-52.764-.187-96.274,43.372-95.969,96.079.3,52.728,43.268,95.463,95.887,95.379C4584.434,10617.258,4627.374,10574.264,4627.333,10521.674Z"/>
    <path id="Path_281" data-name="Path 281" d="M4627.333,10521.674c.041,52.59-42.9,95.584-95.548,95.668-52.619.084-95.583-42.651-95.887-95.379-.305-52.707,43.205-96.267,95.969-96.079A95.972,95.972,0,0,1,4627.333,10521.674Zm-11.378.205c.336-46.116-36.982-84.16-82.945-84.559-47.2-.411-85.439,36.748-85.741,83.328-.306,47.16,36.752,84.886,83.74,85.243C4578.017,10606.25,4615.612,10569.069,4615.955,10521.879Z" fill="#fff"/>
    <path id="Path_282" data-name="Path 282" d="M4615.955,10521.879c-.343,47.19-37.938,84.371-84.946,84.013-46.988-.357-84.046-38.083-83.74-85.243.3-46.58,38.537-83.739,85.741-83.328C4578.973,10437.719,4616.291,10475.763,4615.955,10521.879Zm-89.757,8.5c1.141,1.021,1.863,1.655,2.573,2.3,11.695,10.667,26.734,12.277,38.8,4.151a30.381,30.381,0,0,0,11.62-35.392c-4.839-13.5-17.265-20.7-33.033-19.721a14.091,14.091,0,0,1-8.431-2.77c-11.431-8.38-26.463-5.18-33.186,6.949a19.624,19.624,0,0,1-7.835,7.567c-9.442,4.783-14.95,13.478-14.217,24,.72,10.343,7.494,18.489,17.7,21.41C4510.456,10541.821,4518.541,10537.856,4526.2,10530.381Zm-22.508,13.894v24.476h56.175v-25.4c-13.436,3.112-24.388-.82-32.434-8.26Z"/>
    <path id="Path_283" data-name="Path 283" d="M4526.2,10530.381c-7.657,7.476-15.742,11.44-26.006,8.5-10.205-2.921-16.979-11.067-17.7-21.41-.733-10.526,4.775-19.221,14.217-24a19.624,19.624,0,0,0,7.835-7.567c6.723-12.129,21.755-15.329,33.186-6.949a14.091,14.091,0,0,0,8.431,2.77c15.768-.982,28.194,6.217,33.033,19.721a30.381,30.381,0,0,1-11.62,35.392c-12.07,8.126-27.109,6.516-38.8-4.151C4528.061,10532.036,4527.339,10531.4,4526.2,10530.381Z" fill="#fff"/>
    <path id="Path_284" data-name="Path 284" d="M4503.69,10544.274l23.741-9.187c8.046,7.439,19,11.372,32.434,8.26v25.4H4503.69Z" fill="#fff"/>
  </g>
</svg>
