<svg xmlns="http://www.w3.org/2000/svg" width="122.17" height="72.704" viewBox="0 0 122.17 72.704">
  <g id="Group_311" data-name="Group 311" transform="translate(-3670.309 -3675.339)">
    <path id="Path_438" data-name="Path 438" d="M3698.233,3748.043c-.626-.931-.935-1.792.272-2.568.721-.464.433-1.325.506-1.994a32.522,32.522,0,0,1,28.264-28.935c.644-.081,1.505.077,1.81-.652s-.429-1.207-.808-1.742c-.223-.315-.5-.6-.717-.913-.854-1.223-.665-2.185.687-2.834a6.831,6.831,0,0,1,6.162-.019c1.308.633,1.521,1.676.694,2.87-.248.356-.566.664-.816,1.018-.349.5-1.051.929-.758,1.6.28.648,1.067.581,1.675.651a30.96,30.96,0,0,1,14.865,5.728,31.951,31.951,0,0,1,13.618,23.921c.058.625.082,1.114.784,1.509,1.117.63.552,1.545.083,2.355Zm36.615-29.52a30.245,30.245,0,0,1,19.467,21.2c.283,1.132-.077,2.751.983,3.282.969.486,2.374.067,3.583.125.829.04,1.058-.148.911-1.046a28.951,28.951,0,0,0-22.773-23.592A3.76,3.76,0,0,0,3734.848,3718.523Z" fill="#fff"/>
    <path id="Path_439" data-name="Path 439" d="M3767.754,3748.043a4.052,4.052,0,0,0-.716-3.956c-1.145-1.616-.9-2.2,1-2.45a21.206,21.206,0,0,0,18.051-19.833c.364-10.556-6.66-19.734-16.613-21.76a21.405,21.405,0,0,0-8.792-.053,1.544,1.544,0,0,1-2.017-1c-5.809-11.8-16.983-18.376-30.036-17.19-11,1-19.089,6.746-24.183,16.541a2.4,2.4,0,0,1-3.092,1.533c-11.394-1.907-22.32,5.65-24.337,16.716a21.17,21.17,0,0,0,16.841,24.9c.237.048.475.1.714.127,1.905.256,2.178.9,1.046,2.592a3.9,3.9,0,0,0-.59,3.83h-.873a2.184,2.184,0,0,0-.5-.234c-12.223-2.23-20.424-10.277-22.916-22.463-.08-.387.081-.909-.431-1.15v-6.979c.513-.24.365-.764.431-1.148a27.37,27.37,0,0,1,28.109-22.719,1.711,1.711,0,0,0,1.728-.953,36.093,36.093,0,0,1,22.149-16,30.922,30.922,0,0,0,4.595-1.055h7.854c.2.4.584.26.9.306a35.982,35.982,0,0,1,25.795,16.28,2.7,2.7,0,0,0,2.634,1.434,27.238,27.238,0,0,1,27.464,22.406c.13.675-.06,1.462.514,2.033v6.107c-.5.255-.329.769-.409,1.16q-3.765,18.339-21.988,22.6c-.308.072-.7-.029-.874.373Z" fill="#fff"/>
  </g>
</svg>
