

<svg xmlns="http://www.w3.org/2000/svg" width="30" height="30" viewBox="0 0 30 30">
<svg xmlns="http://www.w3.org/2000/svg" width="23.659" height="23.66" viewBox="0 0 23.659 23.66">
  <path id="Path_621" data-name="Path 621" d="M7850.27,11188.5a4.587,4.587,0,0,0-6.438,0l-.009.01-14.22,14.221c-.01.01-.019.021-.029.031l-.023.026a.442.442,0,0,0-.033.042l-.022.029a.528.528,0,0,0-.029.046l-.018.031c-.009.016-.017.031-.025.049l-.014.03c-.008.019-.014.036-.021.055l-.01.029c-.006.021-.012.04-.016.061l-.006.021-1.407,6.558v0c-.005.026-.009.053-.013.08v.011c0,.024,0,.049,0,.073v.02c0,.021,0,.04,0,.061l0,.032c0,.017,0,.032.007.05a.384.384,0,0,0,.007.04l0,.012a.429.429,0,0,0,.013.051l0,.019a.915.915,0,0,0,.158.3l.006.008a.641.641,0,0,0,.047.054l.014.016.045.042.019.017.047.036.021.015a.643.643,0,0,0,.058.037l.013.008a.739.739,0,0,0,.076.038l.014,0a.549.549,0,0,0,.068.026l.018.006c.023.007.045.014.069.019l.009,0h.009c.026,0,.052.01.078.013h.013c.03,0,.06,0,.09,0h0c.03,0,.059,0,.088,0l.02,0c.025,0,.049-.007.073-.012h.009l6.537-1.4.011,0,.009,0,.011,0a.709.709,0,0,0,.075-.021l.016-.006a.568.568,0,0,0,.068-.025l.018-.009.062-.03.02-.013c.019-.011.038-.021.056-.034l.02-.016a.589.589,0,0,0,.051-.039l.018-.016.039-.035,14.229-14.229.008-.011a4.587,4.587,0,0,0-.009-6.429Zm-15.326,19.19c-3.935,2.969-4.918,1.055-4.918,1.055l1.055-4.918,10.82-10.82,3.863,3.863S7838.878,11204.724,7834.944,11207.692Zm14.039-14.039-.009.009-1.923,1.923-3.863-3.864,1.932-1.931a2.732,2.732,0,0,1,3.863,3.863Z" transform="translate(-7827.93 -11187.183)" fill="#aaa"/>
</svg>
  <g id="Group_421" data-name="Group 421" transform="translate(-7817.512 -11191.033)">
    <path id="Path_620" data-name="Path 620" d="M7846.532,11200.713l-1.97,1.98a12.514,12.514,0,0,1-12.05,15.84,12.5,12.5,0,0,1,0-25,12.212,12.212,0,0,1,3.69.56l1.95-1.951a14.714,14.714,0,0,0-5.64-1.108,15,15,0,1,0,15,15A14.669,14.669,0,0,0,7846.532,11200.713Z" fill="#aaa"/>
  </g>
</svg>