<svg xmlns="http://www.w3.org/2000/svg" width="34.539" height="34.544" viewBox="0 0 34.539 34.544">
  <g id="Group_812" data-name="Group 812" transform="translate(-3828.17 -4629.11)">
    <path id="Path_1297" data-name="Path 1297" d="M3840.694,4629.113q-4.46-.006-8.918,0a3.455,3.455,0,0,0-3.6,3.594c0,1.486,0,2.973,0,4.459s0,2.973,0,4.459a3.454,3.454,0,0,0,3.594,3.6q4.459.007,8.918,0a3.448,3.448,0,0,0,3.6-3.594q.007-4.459,0-8.919A3.45,3.45,0,0,0,3840.694,4629.113Zm1.292,12.519a1.165,1.165,0,0,1-1.287,1.295q-2.247,0-4.5,0-2.212,0-4.424,0a1.172,1.172,0,0,1-1.3-1.313q0-4.443,0-8.886a1.172,1.172,0,0,1,1.3-1.313q4.459,0,8.92,0a1.168,1.168,0,0,1,1.287,1.295Q3841.988,4637.171,3841.986,4641.632Z" fill="#575756"/>
    <path id="Path_1298" data-name="Path 1298" d="M3859.108,4629.113q-4.458-.006-8.917,0a3.455,3.455,0,0,0-3.6,3.6c0,1.475,0,2.949,0,4.424,0,1.5,0,3,0,4.5a3.455,3.455,0,0,0,3.6,3.6q4.46.006,8.918,0a3.45,3.45,0,0,0,3.6-3.6q.006-4.459,0-8.919A3.45,3.45,0,0,0,3859.108,4629.113Zm1.3,12.478a1.177,1.177,0,0,1-1.318,1.336q-4.443,0-8.885,0a1.172,1.172,0,0,1-1.308-1.309q0-4.444,0-8.885a1.18,1.18,0,0,1,1.336-1.318h8.849a1.178,1.178,0,0,1,1.327,1.327q0,2.212,0,4.424T3860.405,4641.591Z" fill="#575756"/>
    <path id="Path_1299" data-name="Path 1299" d="M3840.689,4647.534c-1.474,0-2.948,0-4.423,0-1.5,0-3,0-4.494,0a3.455,3.455,0,0,0-3.6,3.6q-.006,4.46,0,8.918a3.455,3.455,0,0,0,3.6,3.6q4.458.006,8.917,0a3.45,3.45,0,0,0,3.6-3.6q.006-4.459,0-8.918A3.451,3.451,0,0,0,3840.689,4647.534Zm1.3,12.556a1.154,1.154,0,0,1-1.25,1.258q-4.515,0-9.028,0a1.153,1.153,0,0,1-1.232-1.242c0-1.51,0-3.021,0-4.532q0-2.231,0-4.461a1.164,1.164,0,0,1,1.269-1.277q4.5,0,8.992,0a1.157,1.157,0,0,1,1.249,1.259Q3841.988,4655.593,3841.985,4660.09Z" fill="#575756"/>
    <path id="Path_1300" data-name="Path 1300" d="M3859.11,4647.534q-4.46-.007-8.918,0a3.454,3.454,0,0,0-3.6,3.6q-.006,4.46,0,8.919a3.455,3.455,0,0,0,3.6,3.6c1.474,0,2.948,0,4.423,0,1.5,0,3,0,4.494,0a3.451,3.451,0,0,0,3.6-3.6q.006-4.46,0-8.919A3.451,3.451,0,0,0,3859.11,4647.534Zm.027,13.814q-4.5,0-8.993,0a1.158,1.158,0,0,1-1.25-1.259q0-2.249,0-4.5,0-2.23,0-4.461a1.168,1.168,0,0,1,1.285-1.3h8.957a1.163,1.163,0,0,1,1.268,1.277q0,4.479,0,8.958A1.159,1.159,0,0,1,3859.137,4661.348Z" fill="#575756"/>
  </g>
</svg>
