<svg xmlns="http://www.w3.org/2000/svg" width="98.781" height="98.753" viewBox="0 0 98.781 98.753">
  <path id="Path_307" data-name="Path 307" d="M4629.006,3242.44v-7.715a2.553,2.553,0,0,0,.142-.35c1.207-4.757,4.308-7.171,9.224-7.172h12.835c-.746-2.625-1.433-5.124-2.19-7.6a1.326,1.326,0,0,0-.869-.688c-5.283-1.19-10.568-2.373-15.868-3.485a4.107,4.107,0,0,1-3.274-2.3v-1.543c1.065-1.788,2.06-2.369,3.6-2.034,6.3,1.377,12.6,2.775,18.907,4.148a3.151,3.151,0,0,1,2.566,2.431c.5,1.826,1.032,3.643,1.553,5.463.535,1.869,1.073,3.736,1.613,5.615h1.253c8.455,0,16.911-.014,25.367.006a8.414,8.414,0,0,1,8.634,7.368,45.95,45.95,0,0,1,.111,7.5,2.755,2.755,0,0,1-2.764,2.475c-.376.019-.754,0-1.2,0l-.936,15.433h1.233c8.809,0,17.619-.025,26.428.01a12.347,12.347,0,0,1,12.207,10.613,64.223,64.223,0,0,1,.2,7.41,2.911,2.911,0,0,1-3.173,3.181c-.853.007-1.707,0-2.559,0v5.786c.873,0,1.7,0,2.528,0a2.928,2.928,0,0,1,3.209,3.15c.012,1.9.019,3.793,0,5.689a12.588,12.588,0,0,1-9.235,11.937c-.582.159-1.17.293-1.756.439h-77.938a3.718,3.718,0,0,1-2.184-3.591c-.391-7.567-.888-15.127-1.348-22.69q-.846-13.939-1.693-27.879c-.191-3.133-.393-6.265-.6-9.5A3.489,3.489,0,0,1,4629.006,3242.44Zm52.9,17.551c.314-5.155.624-10.237.937-15.377h-44l.82,13.448h1.12c2.893,0,5.787-.037,8.679.014a8.6,8.6,0,0,1,8.467,8.432q.1,7.953,0,15.908a8.463,8.463,0,0,1-7.146,8.249,35.5,35.5,0,0,1-4.709.18c-1.438.025-2.876.005-4.422.005l.7,11.529h23.576a28.579,28.579,0,0,1-1.267-3.227,16.806,16.806,0,0,1-.511-3.51c-.082-1.8-.027-3.6-.021-5.4a2.952,2.952,0,0,1,3.3-3.25c.82,0,1.639,0,2.428,0v-5.787c-.916,0-1.778.009-2.64,0a2.908,2.908,0,0,1-3.087-3.077c-.015-1.767-.006-3.535,0-5.3A12.546,12.546,0,0,1,4677,3259.991C4678.6,3259.989,4680.2,3259.991,4681.9,3259.991Zm40.086,15.4c0-1.049.018-2.008,0-2.966a6.7,6.7,0,0,0-6.656-6.631q-19.374-.044-38.75,0a6.486,6.486,0,0,0-6.35,4.829,31.171,31.171,0,0,0-.436,4.772Zm-.053,17.452H4669.9c0,.825,0,1.591,0,2.356.007,4.39,2.841,7.223,7.238,7.226q8.578,0,17.157,0c6.94,0,13.88.013,20.82-.005a6.672,6.672,0,0,0,6.79-5.86A28.925,28.925,0,0,0,4721.934,3292.84Zm-87.134-54.134h52.08v-2.082c0-2.6-1.024-3.635-3.593-3.635h-44.923c-.289,0-.58-.014-.867.009a2.888,2.888,0,0,0-2.686,2.684C4634.755,3236.67,4634.8,3237.663,4634.8,3238.706Zm5.2,25.155,1.29,21.192c2.815,0,5.511.048,8.2-.019a2.742,2.742,0,0,0,2.639-2.707q.06-7.851,0-15.7a2.741,2.741,0,0,0-2.6-2.742C4646.4,3263.812,4643.253,3263.861,4640,3263.861Zm35.735,23.065h40.389v-5.669h-40.389Z" transform="translate(-4629.006 -3209.456)" fill="#e57c00"/>
</svg>
