<svg xmlns="http://www.w3.org/2000/svg" width="86.322" height="89.243" viewBox="0 0 86.322 89.243">
  <g id="Page-1" transform="translate(0 0.006)">
    <g id="_014---Fruit-Stall" data-name="014---Fruit-Stall" transform="translate(0 -0.006)">
      <path id="Shape" d="M12,30H28.36a5.949,5.949,0,0,1-5.949,5.949H17.949A5.949,5.949,0,0,1,12,30Z" transform="translate(5.847 13.139)" fill="#fff"/>
      <path id="Shape-2" data-name="Shape" d="M23,30H40.847A5.949,5.949,0,0,1,34.9,35.949H28.949A5.949,5.949,0,0,1,23,30Z" transform="translate(11.206 13.139)" fill="#fff"/>
      <path id="Shape-3" data-name="Shape" d="M35,30H51.36a5.949,5.949,0,0,1-5.949,5.949H40.949A5.949,5.949,0,0,1,35,30Z" transform="translate(17.053 13.139)" fill="#fff"/>
      <path id="Shape-4" data-name="Shape" d="M84.285,35.847a5.986,5.986,0,0,1-1.74,4.209A6.065,6.065,0,0,1,79.823,41.6a5.439,5.439,0,0,1-1.487.193H73.874a5.949,5.949,0,0,1-5.949-5.949H78.336a1.487,1.487,0,1,0,0-2.974h-9.4l-2.6-6.5a1.489,1.489,0,0,0-2.766,1.1l2.156,5.4H53.053V31.385a1.487,1.487,0,1,0-2.974,0v1.487H35.206V31.385a1.487,1.487,0,0,0-2.974,0v1.487H19.561l2.156-5.4a1.489,1.489,0,0,0-2.766-1.1l-2.6,6.5h-9.4a1.487,1.487,0,0,0,0,2.974H17.36A5.949,5.949,0,0,1,11.411,41.8H6.949A5.439,5.439,0,0,1,5.462,41.6,6.065,6.065,0,0,1,2.74,40.056,5.986,5.986,0,0,1,1,35.847a5.11,5.11,0,0,1,.8-2.737L9.224,21.45A7.4,7.4,0,0,1,15.486,18H26.268c3.317,8.135,11.481,13.385,16.374,13.385S55.7,26.135,59.017,18H69.8a7.4,7.4,0,0,1,6.261,3.45l7.421,11.66a5.11,5.11,0,0,1,.8,2.737Z" transform="translate(0.487 7.292)" fill="#fff"/>
      <path id="Shape-5" data-name="Shape" d="M9.949,36.039v18.59a.744.744,0,0,1-.744.744H4.744A.744.744,0,0,1,4,54.629V35.92a9.563,9.563,0,0,0,1.487.119Z" transform="translate(1.949 16.024)" fill="#fff"/>
      <path id="Shape-6" data-name="Shape" d="M55.949,35.92V54.629a.744.744,0,0,1-.744.744H50.744A.744.744,0,0,1,50,54.629V36.039h4.462A9.273,9.273,0,0,0,55.949,35.92Z" transform="translate(24.362 16.024)" fill="#fff"/>
      <rect id="Rectangle-path" width="86.322" height="5.798" rx="2" transform="translate(0 74.423)" fill="#fff"/>
      <path id="Shape-7" data-name="Shape" d="M2,57H82.311v2.974a2.974,2.974,0,0,1-2.974,2.974H4.974A2.974,2.974,0,0,1,2,59.974Z" transform="translate(0.974 26.294)" fill="#fff"/>
      <path id="Shape-8" data-name="Shape" d="M47.31,8.075a4.868,4.868,0,0,1-3.331,1.532l-.283.015c-.238.015-.461.045-.55.164a.769.769,0,0,0-.045.625,13.573,13.573,0,0,1,.283,3.064,5.057,5.057,0,0,1-5.071,4.952,4.935,4.935,0,0,1-4.477-2.811,5,5,0,0,1-4.462,2.722,4.908,4.908,0,0,1-4.982-4.729,12.253,12.253,0,0,1,.253-3.168.806.806,0,0,0-.1-.684.332.332,0,0,0-.253-.149,5.318,5.318,0,0,0-.61-.045,4.951,4.951,0,0,1-3.227-1.5,14.975,14.975,0,0,0-1.443,7.347c0,10.411,9.92,17.847,14.872,17.847s14.872-7.436,14.872-17.847A14.872,14.872,0,0,0,47.31,8.075ZM29.419,24.33a1.487,1.487,0,1,1-2.974,0V22.843a1.487,1.487,0,0,1,2.974,0Zm4.462,5.949a1.487,1.487,0,1,1,1.487-1.487A1.487,1.487,0,0,1,33.881,30.279Zm1.487-7.436a1.487,1.487,0,0,1-2.974,0V21.356a1.487,1.487,0,0,1,2.974,0Zm5.949,1.487a1.487,1.487,0,1,1-2.974,0V22.843a1.487,1.487,0,0,1,2.974,0Z" transform="translate(9.249 2.449)" fill="#fff"/>
      <path id="Shape-9" data-name="Shape" d="M43.7,6.357a9.747,9.747,0,0,0-7-.446A12.915,12.915,0,0,0,34.25,6.979a15.973,15.973,0,0,0-1.532-5.158A1.487,1.487,0,1,0,30.062,3.16,12.725,12.725,0,0,1,31.23,6.866a11.911,11.911,0,0,0-2.219-.925,9.667,9.667,0,0,0-6.945.431,1.948,1.948,0,0,0,.788,3.659c.253.015.491.03.714.059a3.538,3.538,0,0,1,2.989,4.4,9.44,9.44,0,0,0-.193,2.439,2.024,2.024,0,0,0,3.911.565,8.641,8.641,0,0,1,.714-1.755L31,15.727a2.1,2.1,0,0,1,3.6-.1,13.162,13.162,0,0,1,.818,1.948,2.061,2.061,0,0,0,3.986-.7,10.223,10.223,0,0,0-.208-2.365,3.43,3.43,0,0,1,3.108-4.4c.164-.015.342-.015.521-.03a1.908,1.908,0,0,0,1.428-.714,1.914,1.914,0,0,0-.55-3Z" transform="translate(10.252 -0.994)" fill="#fff"/>
      <circle id="Oval" cx="7.408" cy="7.408" r="7.408" transform="translate(22.547 59.606)" fill="#fff"/>
      <path id="Shape-10" data-name="Shape" d="M20.975,47.411a1.487,1.487,0,0,1-1.446-1.846c.372-1.5.709-5.039-.708-5.747a1.488,1.488,0,0,1,1.33-2.662c3.928,1.965,2.446,8.4,2.265,9.129A1.487,1.487,0,0,1,20.975,47.411Z" transform="translate(8.769 16.55)" fill="#fff"/>
      <circle id="Oval-2" data-name="Oval" cx="7.408" cy="7.408" r="7.408" transform="translate(48.959 59.606)" fill="#fff"/>
      <path id="Shape-11" data-name="Shape" d="M38.975,47.411a1.487,1.487,0,0,1-1.446-1.846c.372-1.5.709-5.039-.708-5.747a1.488,1.488,0,0,1,1.33-2.662c3.928,1.965,2.446,8.4,2.265,9.129a1.487,1.487,0,0,1-1.441,1.126Z" transform="translate(17.54 16.55)" fill="#fff"/>
    </g>
  </g>
</svg>
