<svg xmlns="http://www.w3.org/2000/svg" width="16.903" height="17.479" viewBox="0 0 16.903 17.479">
  <g id="Group_2591" data-name="Group 2591" transform="translate(-8.438 0)">
    <g id="Group_2582" data-name="Group 2582" transform="translate(8.438 2.691)">
      <g id="Group_2581" data-name="Group 2581" transform="translate(0)">
        <path id="Path_3987" data-name="Path 3987" d="M25.341,85.413a1.609,1.609,0,0,0-1.608-1.608H20.819a5.107,5.107,0,0,0,.691-2.653V80.98h0a2.168,2.168,0,0,0-2.134-2.167H19.36a1.1,1.1,0,0,0-1.085.991c-.217,2.621-2.743,3.972-4.432,4.794v-.271a.513.513,0,0,0-.513-.513H8.951a.513.513,0,0,0-.513.513v8.756a.513.513,0,0,0,.513.513h3.283a1.609,1.609,0,0,0,1.438-.891,12.185,12.185,0,0,0,5.238.9c.311,0,.63,0,.957-.006.362,0,.737-.007,1.129-.007h1.622A1.607,1.607,0,0,0,24,91.163a1.606,1.606,0,0,0,.547-2.189,1.606,1.606,0,0,0,.349-2.456A1.6,1.6,0,0,0,25.341,85.413ZM12.816,91.986a.582.582,0,0,1-.581.581h-.581V90.892a.513.513,0,1,0-1.026,0v1.676H9.464v-7.73h3.352v7.148Zm9.823-4.966h1.075a.581.581,0,1,1,0,1.163H22.639a.513.513,0,0,0,0,1.026h.528a.581.581,0,1,1,0,1.163h-.547a.513.513,0,1,0,0,1.026.581.581,0,1,1,0,1.163H21c-.4,0-.774,0-1.139.007-2.287.022-3.967.038-6.009-.911V85.733h0l.164-.079a14.5,14.5,0,0,0,3.164-1.911A5.593,5.593,0,0,0,19.3,79.887a.076.076,0,0,1,.062-.049h0a1.147,1.147,0,0,1,1.124,1.142v.172a4.427,4.427,0,0,1-.86,2.653h-.816a.513.513,0,1,0,0,1.026h4.925a.581.581,0,0,1,0,1.163H22.639a.513.513,0,0,0,0,1.026Z" transform="translate(-8.438 -78.812)" fill="#aaa"/>
      </g>
    </g>
    <g id="Group_2584" data-name="Group 2584" transform="translate(22.666 3.792)">
      <g id="Group_2583" data-name="Group 2583">
        <path id="Path_3988" data-name="Path 3988" d="M426.827,111.062h-1.095a.513.513,0,0,0,0,1.026h1.095a.513.513,0,0,0,0-1.026Z" transform="translate(-425.219 -111.062)" fill="#aaa"/>
      </g>
    </g>
    <g id="Group_2586" data-name="Group 2586" transform="translate(15.005 3.792)">
      <g id="Group_2585" data-name="Group 2585" transform="translate(0)">
        <path id="Path_3989" data-name="Path 3989" d="M202.407,111.062h-1.094a.513.513,0,0,0,0,1.026h1.094a.513.513,0,0,0,0-1.026Z" transform="translate(-200.799 -111.062)" fill="#aaa"/>
      </g>
    </g>
    <g id="Group_2588" data-name="Group 2588" transform="translate(17.194 0)">
      <g id="Group_2587" data-name="Group 2587" transform="translate(0 0)">
        <path id="Path_3990" data-name="Path 3990" d="M266.421,1.2l-.547-.948a.513.513,0,0,0-.889.513l.547.948a.513.513,0,0,0,.889-.513Z" transform="translate(-264.917 0)" fill="#aaa"/>
      </g>
    </g>
    <g id="Group_2590" data-name="Group 2590" transform="translate(21.025 0)">
      <g id="Group_2589" data-name="Group 2589" transform="translate(0 0)">
        <path id="Path_3991" data-name="Path 3991" d="M378.443.069a.513.513,0,0,0-.7.188L377.2,1.2a.513.513,0,1,0,.889.513l.547-.948A.513.513,0,0,0,378.443.069Z" transform="translate(-377.126 0)" fill="#aaa"/>
      </g>
    </g>
  </g>
</svg>
