<svg xmlns="http://www.w3.org/2000/svg" width="35.049" height="40.541" viewBox="0 0 35.049 40.541">
  <path id="Path_207" data-name="Path 207" d="M4475.109,8379.991c-.036-1.687-.017-3.374-.085-5.06a18.467,18.467,0,0,0-.325-3.013,3.737,3.737,0,0,0-3-3.141,10.4,10.4,0,0,0-1.883-.128c-.246-.009-.36-.056-.423-.325a3.282,3.282,0,0,0-2.865-2.718,15.107,15.107,0,0,0-2.207-.019c-.014-.032-.032-.064-.044-.1a3.434,3.434,0,0,0-3.631-2.653h-1.227v-.467c0-1.319.006-2.638,0-3.956a7.057,7.057,0,0,0-.755-3.351,4.437,4.437,0,0,0-7.458-.758,5.757,5.757,0,0,0-1.236,3.744c-.017,4.588-.007,9.177-.007,13.767v.474c-.985-.8-1.9-1.535-2.795-2.289a7.648,7.648,0,0,0-2.669-1.641,3.155,3.155,0,0,0-4.068,1.59,4.936,4.936,0,0,0-.316,2.672,8.784,8.784,0,0,0,1.575,3.872c2.586,3.732,5.206,7.441,7.8,11.168a3.2,3.2,0,0,1,.4.918c.185.629.271,1.291.5,1.9a3.625,3.625,0,0,0,3.74,2.671c3.861-.056,7.725-.014,11.587-.021a6.506,6.506,0,0,0,1.178-.1,5.913,5.913,0,0,0,3.775-2.458,36.572,36.572,0,0,0,3.444-5.832A10.476,10.476,0,0,0,4475.109,8379.991Zm-2.877,3.91c-.993,1.864-2.067,3.693-3.22,5.464a3.887,3.887,0,0,1-3.5,1.771c-3.85-.035-7.7-.024-11.549,0a1.446,1.446,0,0,1-1.539-1.033c-.258-.768-.407-1.571-.622-2.354a2.335,2.335,0,0,0-.3-.714c-2.637-3.779-5.305-7.536-7.911-11.336a11.934,11.934,0,0,1-1.3-2.676,4.439,4.439,0,0,1-.134-1.789,1.025,1.025,0,0,1,1.451-.975,4.992,4.992,0,0,1,1.6.8c1.558,1.213,3.07,2.486,4.592,3.745a.535.535,0,0,1,.16.356c.018.514,0,1.027.009,1.543a1,1,0,0,0,.915,1.046,1.012,1.012,0,0,0,1.117-.928,3.049,3.049,0,0,0,.008-.4q0-9.04,0-18.08a4.3,4.3,0,0,1,.728-2.692,2.382,2.382,0,0,1,4.091.314,4.519,4.519,0,0,1,.516,2.2q-.01,5.142.005,10.286a1.931,1.931,0,0,0,.188.869.99.99,0,0,0,1.174.41.979.979,0,0,0,.669-.972c0-1.146,0-2.295,0-3.441v-.437c.465,0,.9,0,1.33,0a1.375,1.375,0,0,1,1.428.971,5.331,5.331,0,0,1,.312,1.613c.011,1.171-.071,2.343-.114,3.516-.007.2-.02.395-.011.592a1.019,1.019,0,1,0,2.038-.023c.06-1.3.124-2.6.188-3.937a14.742,14.742,0,0,1,1.569.011,1.683,1.683,0,0,1,1.319,1.67c.075.994.059,2,.055,3,0,.658-.079,1.316-.081,1.974a1.012,1.012,0,0,0,1.927.464,1.359,1.359,0,0,0,.1-.5c.057-1.093.1-2.185.154-3.276a1.286,1.286,0,0,1,.027-.149c1.531-.235,2.571-.041,3.022,1.647a12.963,12.963,0,0,1,.328,2.849c.06,1.605.019,3.214.06,4.82A7.535,7.535,0,0,1,4472.232,8383.9Z" transform="translate(-4440.063 -8352.607)" fill="#fff"/>
</svg>
