<svg xmlns="http://www.w3.org/2000/svg" width="34.286" height="40" viewBox="0 0 34.286 40">
  <path id="Path_1743" data-name="Path 1743" d="M3857.483,1301.626h-24.351a4.951,4.951,0,0,0-4.962,4.942v24.2a4.942,4.942,0,0,0,4.962,4.93h22.693l6.631,5.929v-35.058A4.961,4.961,0,0,0,3857.483,1301.626Zm-12.176,28.561a15.129,15.129,0,0,1-11.136-4.872l1.54-1.358a14.018,14.018,0,0,0,19.18,0l1.553,1.358A15.093,15.093,0,0,1,3845.307,1330.187Z" transform="translate(-3828.17 -1301.626)" fill="#d8e0e0"/>
</svg>
