<svg xmlns="http://www.w3.org/2000/svg" width="109.757" height="109.743" viewBox="0 0 109.757 109.743">
  <g id="Group_200" data-name="Group 200" transform="translate(-4137.488 -3830.56)">
    <path id="Path_295" data-name="Path 295" d="M4137.488,3936.016c1.075-2.767,3.431-2.719,5.879-2.539.765-3.041,1.512-6,2.256-8.969.164-.657.305-1.32.482-1.974a3.475,3.475,0,0,1,3.666-2.8c3.608-.012,7.216,0,10.824,0h.821v-5.144h-4.135c-1.893,0-3.786,0-5.679,0a3.522,3.522,0,0,1-3.8-3.013c-.231-1.873.963-3.364,3.071-3.839a2.406,2.406,0,0,0,.275-.095c-1.072-21.119,15.255-40.589,37.7-42.647v-5.278c-1.558,0-3.118.006-4.678,0-2.257-.01-3.819-1.436-3.8-3.46a3.452,3.452,0,0,1,3.752-3.4q8.251-.011,16.5,0a3.439,3.439,0,1,1,.038,6.854c-1.568.011-3.137,0-4.784,0v5.267a40.75,40.75,0,0,1,27.316,13.837c7.258,8.207,10.548,17.9,10.338,28.847.218.04.387.064.553.1a3.433,3.433,0,0,1-.759,6.814c-3.317.015-6.634,0-10.021,0v5.144h5.456c2,0,4,0,6,0a3.52,3.52,0,0,1,3.91,3.033q1.323,5.239,2.64,10.479a1.281,1.281,0,0,0,.14.205c.656,0,1.4-.007,2.139,0a3.432,3.432,0,0,1,1.425,6.638,3.14,3.14,0,0,0-.346.22h-104.6a4.7,4.7,0,0,1-2.573-2.572Zm89.06-28.346a34.21,34.21,0,0,0-54.929-28.921c-9.4,7.319-13.747,17.059-13.568,28.921Zm6.016,18.964h-80.407l-1.674,6.747h83.762Zm-64.158-6.981h47.877v-5.019h-47.877Z" fill="#e57c00"/>
    <path id="Path_296" data-name="Path 296" d="M4137.488,3884.573a4.048,4.048,0,0,1,4.419-2.595c1.886.108,3.784.01,5.676.026a3.431,3.431,0,1,1,.006,6.852c-1.892.017-3.79-.084-5.676.027a4.067,4.067,0,0,1-4.425-2.6Z" fill="#e57c00"/>
    <path id="Path_297" data-name="Path 297" d="M4195.789,3837.4c0,1.143.023,2.286,0,3.428a3.422,3.422,0,1,1-6.844-.023q-.045-3.374,0-6.748a3.425,3.425,0,1,1,6.847.022C4195.807,3835.185,4195.789,3836.292,4195.789,3837.4Z" fill="#e57c00"/>
    <path id="Path_298" data-name="Path 298" d="M4240.41,3888.858c-1.143,0-2.286.021-3.428,0a3.422,3.422,0,1,1-.019-6.844q3.428-.048,6.856,0a3.421,3.421,0,0,1,.018,6.841C4242.7,3888.885,4241.552,3888.857,4240.41,3888.858Z" fill="#e57c00"/>
    <path id="Path_299" data-name="Path 299" d="M4164.3,3853.556c-.119,1.747-.715,2.824-2,3.431a3.08,3.08,0,0,1-3.6-.446c-1.854-1.725-3.656-3.516-5.371-5.378a3.393,3.393,0,0,1,4.763-4.776c1.891,1.736,3.694,3.576,5.442,5.457A5.151,5.151,0,0,1,4164.3,3853.556Z" fill="#e57c00"/>
    <path id="Path_300" data-name="Path 300" d="M4224.252,3857.373c-1.773-.124-2.838-.73-3.445-2.018a3.053,3.053,0,0,1,.447-3.6q2.556-2.737,5.294-5.306a3.4,3.4,0,0,1,4.787,4.792q-2.514,2.7-5.232,5.215A6.322,6.322,0,0,1,4224.252,3857.373Z" fill="#e57c00"/>
  </g>
</svg>
