<svg xmlns="http://www.w3.org/2000/svg" width="30" height="34.436" viewBox="0 0 30 34.436">
  <g id="Group_1060" data-name="Group 1060" transform="translate(-3828.17 -1202.89)">
    <g id="Group_1059" data-name="Group 1059">
      <path id="Path_1846" data-name="Path 1846" d="M3853.394,1237.326c.258-.062.518-.119.775-.188a5.356,5.356,0,0,0,3.994-5.167q.014-11.868,0-23.735a5.355,5.355,0,0,0-5.331-5.338c-5.066-.014-10.133-.006-15.2,0a1.614,1.614,0,1,0,.008,3.225q7.448,0,14.9,0a2.179,2.179,0,0,1,2.4,2.39v23.2a2.181,2.181,0,0,1-2.4,2.389q-7.447,0-14.9,0a1.613,1.613,0,0,0-.5,3.166.762.762,0,0,1,.116.061Z" fill="#575756"/>
      <path id="Path_1847" data-name="Path 1847" d="M3833.783,1221.724h.357q6.086,0,12.171,0a1.613,1.613,0,1,0,.1-3.224c-1.143-.012-2.286,0-3.429,0h-9.269c.129-.14.206-.229.288-.312q2.269-2.271,4.542-4.539a1.615,1.615,0,1,0-2.159-2.4c-.083.075-.161.156-.24.235l-7.322,7.321a1.649,1.649,0,0,0,.006,2.628q3.7,3.7,7.393,7.394a1.624,1.624,0,0,0,1.673.511,1.6,1.6,0,0,0,.806-2.585c-.086-.1-.184-.2-.279-.291q-2.2-2.2-4.4-4.4a3.277,3.277,0,0,0-.291-.229Z" fill="#575756"/>
    </g>
  </g>
</svg>
