<svg xmlns="http://www.w3.org/2000/svg" width="96.963" height="82.317" viewBox="0 0 96.963 82.317">
  <path id="Path_324" data-name="Path 324" d="M4718.066,3730.092a21.19,21.19,0,0,0-3.161,2.237,13.27,13.27,0,0,1-19.166-.288,7.9,7.9,0,0,0-11.327.094,13.21,13.21,0,0,1-19.207,0c-3.178-3.321-8.27-3.165-11.62.156a12.993,12.993,0,0,1-17.62,1.085,17.264,17.264,0,0,1-1.268-1.176,8.242,8.242,0,0,0-5.583-2.45,2.513,2.513,0,0,1-2.71-2.795c-.013-5.77-.207-11.548.043-17.307a27.39,27.39,0,0,1,10.64-20.8,1.288,1.288,0,0,0,.573-1.636c-.98-3.321-.559-6.42,2.183-8.774,3-2.571,6.408-2.61,9.915-1.123a24.544,24.544,0,0,1,2.241,1.235,15.893,15.893,0,0,1,6-4.939,15.694,15.694,0,0,1,9.227-1.611c5.318.8,8,4.606,6.947,9.925-.273,1.372-.72,2.709-1.112,4.152,1.435.626,2.925,1.279,4.417,1.926q21.888,9.5,43.784,18.973a2.889,2.889,0,0,1,1.986,2.935c-.008,7.116.025,14.232.035,21.347q.011,6.78,0,13.56c0,5.645-3.686,9.344-9.32,9.344q-39.1,0-78.193,0c-5.7,0-9.36-3.679-9.365-9.392,0-1.6-.013-3.206,0-4.808a2.478,2.478,0,1,1,4.944-.011c.016,1.794-.009,3.59.008,5.385a3.741,3.741,0,0,0,3.764,3.9c.256.013.513.007.769.008q38.952,0,77.9,0a4.566,4.566,0,0,0,3.087-.813,3.409,3.409,0,0,0,1.423-2.62c.034-5.157.015-10.315.015-15.473Zm-86.687-5.018a14.206,14.206,0,0,1,6.87,3.768,8.128,8.128,0,0,0,11.914-.071,12.965,12.965,0,0,1,18.549-.084c3.7,3.634,8.531,3.618,12.2-.025a12.556,12.556,0,0,1,7.91-3.745,13.014,13.014,0,0,1,10.854,4.071,8.024,8.024,0,0,0,11.134.383,16.087,16.087,0,0,1,7.456-4.3v-13.11h-86.883Zm.259-18.14h76.774c-1.635-.863-3.3-1.587-4.968-2.308q-16.125-6.976-32.248-13.961c-.524-.227-.856-.3-1.274.249a18.869,18.869,0,0,1-9.663,6.647c-5.779,1.786-11.4,1.577-16.572-1.906a37.673,37.673,0,0,1-3.519-3.041A23.163,23.163,0,0,0,4631.638,3706.934Zm26.942-14.045c.416-.125.759-.2,1.08-.33a15.735,15.735,0,0,0,9.465-10.412,6.77,6.77,0,0,0,.285-2.174,3.156,3.156,0,0,0-3.345-3.313,10.422,10.422,0,0,0-2.286.191,13.274,13.274,0,0,0-8.158,5.06C4658.158,3685.746,4658.474,3686.916,4658.58,3692.889Zm-4.847-2.119a9.653,9.653,0,0,0-7.446-9.321c-2.922-.622-4.554.953-4.045,3.905.612,3.548,4.229,7.258,8.1,8.018C4653.612,3694.015,4653.552,3693.718,4653.733,3690.77Z" transform="translate(-4626.32 -3671.844)" fill="#fff"/>
</svg>
