<svg id="Group_2067" data-name="Group 2067" xmlns="http://www.w3.org/2000/svg" width="330.167" height="73.293" viewBox="0 0 330.167 73.293">
  <path id="Path_3797" data-name="Path 3797" d="M451.095,42.122c-6.755-.844-12.515,1.539-17.664,5.667-.758.608-1.036.552-1.591-.158a13.958,13.958,0,0,0-9.933-5.46,145.866,145.866,0,0,0-18.114-.165c-3.089.079-5.445,2.649-6,5.772-2.023,11.4-4.027,22.8-6.079,34.194-.184,1.024-.071,1.407,1.1,1.366,2.574-.086,5.156-.109,7.73.007,1.223.056,1.572-.383,1.764-1.494,1.561-9.063,3.182-18.114,4.785-27.169.281-1.591.953-2.244,2.518-2.259,2.435-.03,4.878-.083,7.306.064a7.577,7.577,0,0,1,6.575,4.364,10.253,10.253,0,0,1,.852,6.687c-1.077,6.207-2.162,12.414-3.314,18.61-.184.983.026,1.2.987,1.186q4.075-.079,8.155,0c.938.023,1.272-.266,1.437-1.2,1.122-6.485,2.33-12.954,3.467-19.439.848-4.845,3.764-7.914,8.241-9.618a7.355,7.355,0,0,1,9.31,3.539,10.245,10.245,0,0,1,.987,6.8c-1.081,6.256-2.154,12.511-3.317,18.752-.2,1.043.094,1.186.991,1.148,1.358-.053,2.717-.015,4.075-.015s2.721-.056,4.075.019c.949.053,1.261-.27,1.419-1.208.852-5.014,1.794-10.016,2.694-15.022.694-3.858,1.479-7.693.908-11.671a15.183,15.183,0,0,0-13.363-13.307Z" transform="translate(-244.671 -26.119)" fill="#fff"/>
  <path id="Path_3798" data-name="Path 3798" d="M321.264,42.018c-2.811.053-5.621.075-8.432-.011-1.036-.03-1.347.341-1.512,1.283-.976,5.561-1.944,11.123-3.04,16.662-1.362,6.875-6.939,11.4-14.6,11.431a5.422,5.422,0,0,1-5.434-4.736,13.537,13.537,0,0,1,.128-4.871c1.1-6.2,2.184-12.406,3.347-18.6.2-1.028-.094-1.167-1-1.156q-4.284.062-8.571,0c-.826-.011-1.1.255-1.246,1.073q-1.452,8.342-3.021,16.666a31.766,31.766,0,0,0-.623,10.286c1.91,13.877,18.077,15.994,24.794,10.237a32.1,32.1,0,0,0,2.739-2.773c-.721,7.055-4.747,10.92-11.468,11.326a28.082,28.082,0,0,1-8.357-.8c-.9-.218-1.223-.049-1.332.9-.3,2.691-.623,5.381-1.088,8.046-.191,1.085.218,1.4,1.118,1.6a33.454,33.454,0,0,0,12.41.619,21.236,21.236,0,0,0,15.99-10.871,32.6,32.6,0,0,0,3.768-10.489c2.139-11.562,4.218-23.135,6.353-34.7.165-.889,0-1.145-.927-1.126Z" transform="translate(-173.089 -26.244)" fill="#fff"/>
  <path id="Path_3799" data-name="Path 3799" d="M191.136,42.066c-3.839-.011-7.682.071-11.521-.015-12.44-.285-24.741,10.586-25.286,23.39-.488,11.524,8.785,19.184,19.593,17.833,3.456-.432,6.139-2.349,8.669-4.544.053-.064.105-.124.158-.188,0,.116,0,.229.011.345-.191,1.148-.33,2.308-.589,3.445-.191.841-.06,1.171.9,1.152q4.216-.084,8.429,0c.859.015,1.111-.311,1.227-1.1.274-1.891.649-3.771.979-5.655,1.542-8.729,3.137-17.45,4.612-26.19.829-4.924-2.24-8.451-7.19-8.47Zm-4.379,14.41c-.368,2.439-.754,4.89-1.362,7.276-1.6,6.289-8.331,10.41-14.343,8.9a7.633,7.633,0,0,1-6.072-8.106,12.328,12.328,0,0,1,11.8-11.945c.979-.049,1.963-.008,2.946-.008v-.026c1.216,0,2.436-.038,3.648.008a3.335,3.335,0,0,1,3.381,3.9Z" transform="translate(-96.403 -26.269)" fill="#fff"/>
  <path id="Path_3800" data-name="Path 3800" d="M624.083,43.81a23.142,23.142,0,0,0-16.831,3.3c-7.438,4.522-11.806,10.992-12.282,18.872,0,9.284,5.88,16.159,14.125,17.457A25.9,25.9,0,0,0,636.891,67c3.847-10.744-1.779-21.041-12.812-23.192Zm3.058,19.112A12.348,12.348,0,0,1,614.788,73.5c-4.424-.158-7.265-1.91-8.474-5.22a9.331,9.331,0,0,1,.274-6.556A12.531,12.531,0,0,1,620.665,53.9a7.812,7.812,0,0,1,6.473,9.025Z" transform="translate(-371.697 -27.108)" fill="#fff"/>
  <path id="Path_3801" data-name="Path 3801" d="M39.2,72.954c-3.794.068-7.588.026-11.382.026H17c-1.929,0-1.921,0-1.584-1.88Q17.8,57.736,20.177,44.366c.417-2.338.405-2.338-1.959-2.293-4.713.09-8.8,3.254-9.566,7.562C5.771,65.8,2.941,81.983.059,98.153c-.139.784-.1,1.085.8,1.07q4.284-.068,8.571,0c.781.011,1.039-.274,1.163-1.013.713-4.184,1.486-8.361,2.222-12.541.387-2.2.375-2.165,2.661-2.2,4.822-.079,9.656.3,14.463-.206,5.58-.582,9.412-3.978,10.395-8.924C40.532,73.31,40.352,72.935,39.2,72.954Z" transform="translate(0.001 -26.28)" fill="#fff"/>
  <path id="Path_3802" data-name="Path 3802" d="M746.333,46.671c-7.5.068-15,.011-22.49.056-1.088.008-1.313-.214-1.111-1.325,1.888-10.331,3.7-20.673,5.546-31.012.769-4.319,1.584-8.631,2.323-12.954.083-.473.687-1.287-.6-1.388-5.85-.465-10.3,2.852-11.314,8.545q-4.2,23.715-8.391,47.434c-.169.957.03,1.2,1,1.19,4.03-.045,8.061-.019,12.928-.019,3.794-.139,8.443.293,13.067-.214,5.426-.593,9.16-3.854,10.29-8.717.278-1.208.128-1.606-1.25-1.591Z" transform="translate(-443.714 -0.005)" fill="#fff"/>
  <path id="Path_3803" data-name="Path 3803" d="M784.4,42.046q-8.567-.107-17.135,0a11.076,11.076,0,0,0-11,9.355c-.143.874.034,1.242.949,1.126a5.471,5.471,0,0,1,.7,0q10.042,0,20.084,0c2.278,0,3.13.987,2.886,3.246-.03.278-.064.555-.109.833q-1.2,6.89-2.417,13.78c-.432,2.466-.856,4.931-1.321,7.614,1.411-.469,2.6-.837,3.779-1.261a12.64,12.64,0,0,0,8.766-10.5c.822-5.111,1.6-10.23,2.36-15.348.773-5.175-2.267-8.777-7.55-8.845Z" transform="translate(-472.437 -26.234)" fill="#fff"/>
  <path id="Path_3804" data-name="Path 3804" d="M81.787,42.056q-8.359-.068-16.726,0a11.141,11.141,0,0,0-11.22,9.3c-.191.934.008,1.231,1,1.216,3.467-.053,6.931-.019,10.4-.019H75.22c2.758,0,3.644,1.021,3.2,3.734-.379,2.3-.814,4.6-1.216,6.894-.792,4.5-1.565,9.014-2.379,13.513-.184,1.009-.026,1.4,1.073.938.946-.4,1.951-.657,2.912-1.021a12.359,12.359,0,0,0,8.267-9.817c.957-5.28,1.67-10.605,2.405-15.919.743-5.351-2.252-8.766-7.7-8.808Z" transform="translate(-33.595 -26.255)" fill="#fff"/>
  <path id="Path_3805" data-name="Path 3805" d="M868.065,136.061c-.784-.274-1.13.285-1.456.927a17.975,17.975,0,0,1-1.835,3.374c-.259-1.34-.5-2.469-.683-3.606-.094-.6-.4-.754-.957-.743-.585.011-.661.364-.724.818-.21,1.479-.45,2.95-.668,4.428-.049.334-.319.8.3.871.548.06.518-.432.578-.781.2-1.182.383-2.368.57-3.55.09.015.18.026.27.041.21,1.1.417,2.2.634,3.291.068.353,0,.886.413.953.522.086.6-.5.781-.844.574-1.088,1.13-2.188,1.692-3.28a13.694,13.694,0,0,1-.2,3.261c-.049.338-.308.807.27.9.51.086.57-.356.627-.736.2-1.336.447-2.672.585-4.015.045-.424.533-1.062-.2-1.317Z" transform="translate(-538.295 -84.959)" fill="#fff"/>
  <path id="Path_3806" data-name="Path 3806" d="M853.09,136.1c-.934-.015-1.869-.008-2.8,0-.33,0-.709.007-.679.48.026.4.39.364.645.334.9-.109.961.3.8,1.051-.24,1.137-.357,2.3-.54,3.569,0,.18-.218.589.289.66.54.079.563-.387.623-.739.2-1.148.424-2.293.529-3.449.071-.8.3-1.227,1.178-1.088.334.053.717.008.706-.443-.015-.5-.45-.368-.751-.372Z" transform="translate(-530.776 -85.02)" fill="#fff"/>
</svg>
