<svg xmlns="http://www.w3.org/2000/svg" width="82.238" height="82.318" viewBox="0 0 82.238 82.318">
  <path id="Path_318" data-name="Path 318" d="M5157.25,3285.155h-1.93c-2.7-.532-4.271-2.311-5.571-4.628q-16-28.509-32.117-56.957c-1.144-2.025-2.4-4-2.51-6.418v-.16a4.61,4.61,0,0,0,.125-.538,7.863,7.863,0,0,1,5.1-6.737,84.77,84.77,0,0,1,21.544-5.868,102.506,102.506,0,0,1,27-.23,87.733,87.733,0,0,1,23.155,6.01c4.95,2.064,6.727,7.119,4.093,11.79q-16.958,30.077-33.95,60.132a9.719,9.719,0,0,1-1.524,1.948A7.144,7.144,0,0,1,5157.25,3285.155Zm-19.2-35.28c.135.264.211.426.3.582q8.088,14.335,16.182,28.667c.921,1.631,2.581,1.633,3.506.008q2.244-3.942,4.46-7.9c.141-.249.265-.507.452-.867a10.664,10.664,0,0,1-7.759-1.953,10.161,10.161,0,0,1-4.2-6.7,10.516,10.516,0,0,1,6.294-11.559,10.349,10.349,0,0,1,7-.457,10.784,10.784,0,0,1,6.973,6.016l15.663-27.753c-12-5.785-24.572-7.574-37.626-6.442a64.318,64.318,0,0,0-23.619,6.481l3.681,6.513a10.794,10.794,0,0,1,13.195-5.139,10.593,10.593,0,0,1,6.95,10.818,10.344,10.344,0,0,1-2.786,6.268A10.746,10.746,0,0,1,5138.049,3249.875Zm-14.847-26.252c22.125-9.749,44.1-9.755,66.163,0,.8-1.423,1.658-2.936,2.51-4.449,1.292-2.293.678-4.088-1.729-5.1a82.2,82.2,0,0,0-22.95-5.793,96.724,96.724,0,0,0-30.213,1.326,76.255,76.255,0,0,0-14.917,4.626,3.071,3.071,0,0,0-1.677,4.361C5121.3,3220.318,5122.29,3222,5123.2,3223.623Zm44.039,36.291a5.8,5.8,0,1,0-5.826,5.72A5.764,5.764,0,0,0,5167.241,3259.914Zm-28.363-26.362a5.752,5.752,0,1,0,5.828,5.73A5.764,5.764,0,0,0,5138.878,3233.552Z" transform="translate(-5115.122 -3202.837)" fill="#fff"/>
</svg>
