<svg xmlns="http://www.w3.org/2000/svg" width="35.456" height="35.479" viewBox="0 0 35.456 35.479">
  <path id="Path_166" data-name="Path 166" d="M1174.981,1115.714a17.74,17.74,0,1,0,17.79,17.737A17.753,17.753,0,0,0,1174.981,1115.714Zm5.846,20.376c-1.058.021-2.117,0-3.3,0,0,1.175.02,2.237-.005,3.3-.043,1.786-1.1,2.925-2.646,2.89-1.564-.035-2.538-1.167-2.554-2.981-.008-1.024,0-2.049,0-3.206-1.117,0-2.137.009-3.157,0-1.9-.02-3.016-.985-3.035-2.612-.018-1.69,1.1-2.681,3.058-2.7.991-.01,1.983,0,3.134,0,0-1.156-.011-2.247,0-3.339a2.608,2.608,0,1,1,5.2-.052c.034,1.031.026,2.063.044,3.1,0,.065.061.129.144.3,1.009,0,2.071-.018,3.131,0,1.793.037,2.87,1.048,2.866,2.659S1182.623,1136.055,1180.827,1136.09Z" transform="translate(-1157.315 -1115.714)" fill="#fff"/>
</svg>
