<svg xmlns="http://www.w3.org/2000/svg" width="39.981" height="40" viewBox="0 0 39.981 40">
  <g id="Group_53" data-name="Group 53" transform="translate(-1954.517 -84.013)">
    <path id="Path_96" data-name="Path 96" d="M1994.408,89.124a5.667,5.667,0,0,0-3.238-4.456,6.769,6.769,0,0,0-5.05-.314,10.117,10.117,0,0,0-6.394,5.492c-.222.451-.381.932-.574,1.409a.523.523,0,0,1-.072,0q-3.207-.521-6.414-1.043a6.424,6.424,0,0,0-5.879,1.825q-5.164,5.138-10.3,10.3a6.458,6.458,0,0,0-.04,9.24q5.242,5.271,10.514,10.515a6.457,6.457,0,0,0,9.116.089q5.268-5.246,10.515-10.515a6.313,6.313,0,0,0,1.761-3.458,7.951,7.951,0,0,0-.082-2.691q-1-6.06-1.968-12.123a1.283,1.283,0,0,0-1.146-1.151c-.841-.137-1.683-.27-2.524-.406-.31-.05-.62-.106-.93-.159a.644.644,0,0,1,.013-.092c.018-.055.037-.11.059-.164a7.866,7.866,0,0,1,3.047-3.733,6.327,6.327,0,0,1,3.645-1.135,3.418,3.418,0,0,1,3.287,2.249,4.787,4.787,0,0,1-.007,3.025,7.463,7.463,0,0,1-1.9,3.137,1.244,1.244,0,0,0-.388,1.038,1.182,1.182,0,0,0,.83,1.063,1.2,1.2,0,0,0,1.316-.308,9.91,9.91,0,0,0,1.48-1.861A8.364,8.364,0,0,0,1994.408,89.124Zm-11.259,5.331c.213.035.426.08.641.1.125.014.165.068.184.188.219,1.369.445,2.736.667,4.1.414,2.551.838,5.1,1.237,7.655a3.848,3.848,0,0,1-1.147,3.462q-4.777,4.788-9.565,9.565a12.938,12.938,0,0,1-1.177,1.119,3.931,3.931,0,0,1-5.253-.337q-5.284-5.277-10.557-10.566a3.944,3.944,0,0,1,0-5.566q5.212-5.228,10.442-10.436a3.921,3.921,0,0,1,3.59-1.073c2.1.348,4.2.686,6.307,1.028a.787.787,0,0,0,.149.025c.172,0,.208.088.216.244a5.563,5.563,0,0,0,.674,2.51,8.382,8.382,0,0,0,.991,1.386,1.232,1.232,0,0,0,1.815.075,1.261,1.261,0,0,0-.01-1.808,3.344,3.344,0,0,1-.911-1.956Z" fill="#e57c00"/>
    <path id="Path_97" data-name="Path 97" d="M1977.889,102.362c.192-.176.442-.376.655-.609a1.184,1.184,0,0,0,.243-1.29,1.252,1.252,0,0,0-2.054-.439c-.218.206-.416.433-.627.653-.109-.094-.179-.155-.25-.215a4.168,4.168,0,0,0-5.631,6.139c.59.6,1.2,1.172,1.774,1.781a1.637,1.637,0,0,1-.072,2.32,1.692,1.692,0,0,1-2.317-.04c-.579-.575-1.167-1.142-1.725-1.738a1.987,1.987,0,0,1-.436-.732,1.584,1.584,0,0,1,.423-1.633,1.251,1.251,0,0,0-.043-1.79,1.266,1.266,0,0,0-1.777.056,4.151,4.151,0,0,0-.79,4.674,13.721,13.721,0,0,0,.778,1.245c-.149.14-.337.308-.515.487a1.264,1.264,0,1,0,1.787,1.77c.165-.182.337-.356.52-.549l.246.213a4.166,4.166,0,0,0,5.664-6.1c-.582-.593-1.176-1.175-1.761-1.764a1.572,1.572,0,0,1-.484-1.276,1.554,1.554,0,0,1,1.061-1.427,1.626,1.626,0,0,1,1.8.4c.542.53,1.06,1.087,1.614,1.6a1.707,1.707,0,0,1,.074,2.506,1.16,1.16,0,0,0-.222,1.349,1.249,1.249,0,0,0,2.027.381,4.141,4.141,0,0,0,.846-4.663A14.275,14.275,0,0,0,1977.889,102.362Z" fill="#e57c00"/>
  </g>
</svg>
