<svg xmlns="http://www.w3.org/2000/svg" width="45" height="45" viewBox="0 0 45 45">
  <g id="Group_855" data-name="Group 855" transform="translate(-3192.122 -3156.309)">
    <g id="Group_854" data-name="Group 854">
      <path id="Path_1374" data-name="Path 1374" d="M3230.53,3167.647h-1.23V3162.9a6.6,6.6,0,0,0-6.592-6.592h-16.172a6.6,6.6,0,0,0-6.591,6.592v4.746h-1.231a6.6,6.6,0,0,0-6.592,6.592v10.547a6.6,6.6,0,0,0,6.592,6.591h1.231v5.977a3.959,3.959,0,0,0,3.955,3.955h21.445a3.959,3.959,0,0,0,3.955-3.955v-5.977h1.23a6.6,6.6,0,0,0,6.592-6.591v-10.547A6.6,6.6,0,0,0,3230.53,3167.647Zm-27.949-4.746a3.96,3.96,0,0,1,3.955-3.955h16.172a3.959,3.959,0,0,1,3.955,3.955v4.746h-24.082Zm24.082,34.453a1.319,1.319,0,0,1-1.318,1.318H3203.9a1.32,1.32,0,0,1-1.319-1.318v-13.008h24.082Zm7.823-12.568a3.961,3.961,0,0,1-3.956,3.955h-1.23v-4.4h.791a1.318,1.318,0,0,0,0-2.637h-30.937a1.318,1.318,0,1,0,0,2.637h.791v4.4h-1.231a3.96,3.96,0,0,1-3.955-3.955v-10.547a3.959,3.959,0,0,1,3.955-3.955h31.816a3.96,3.96,0,0,1,3.956,3.955Z" fill="#575756"/>
      <path id="Path_1375" data-name="Path 1375" d="M3218.138,3187.334h-7.031a1.318,1.318,0,1,0,0,2.637h7.031a1.318,1.318,0,0,0,0-2.637Z" fill="#575756"/>
      <path id="Path_1376" data-name="Path 1376" d="M3218.138,3192.959h-7.031a1.318,1.318,0,1,0,0,2.637h7.031a1.318,1.318,0,0,0,0-2.637Z" fill="#575756"/>
      <path id="Path_1377" data-name="Path 1377" d="M3203.372,3173.272h-4.218a1.318,1.318,0,1,0,0,2.637h4.218a1.318,1.318,0,1,0,0-2.637Z" fill="#575756"/>
    </g>
  </g>
</svg>
