<svg xmlns="http://www.w3.org/2000/svg" width="210.86" height="70.271" viewBox="0 0 210.86 70.271">
  <g id="Group_52" data-name="Group 52" transform="translate(-200 -63.814)">
    <path id="Path_83" data-name="Path 83" d="M391.625,131.552a53.188,53.188,0,0,0-4.538,8.71,2.8,2.8,0,0,1-.6.977.639.639,0,0,1-.776.187c-.3-.172-.194-.471-.1-.728a44.767,44.767,0,0,1,3.7-7.411,55.844,55.844,0,0,1,5.074-6.939,5,5,0,0,1,1.045-1.006.685.685,0,0,1,.87-.008.728.728,0,0,1,.259.878,5.22,5.22,0,0,1-.439.878,30.887,30.887,0,0,0-3.6,8.42,1.034,1.034,0,0,0-.032.507c.384-.581.736-1.106,1.08-1.636a84.474,84.474,0,0,1,6.391-8.628,3.452,3.452,0,0,1,.947-.858.805.805,0,0,1,.96.019.722.722,0,0,1,.152.9,16.764,16.764,0,0,1-1.289,2.411,47.4,47.4,0,0,0-4.09,8.828,5.4,5.4,0,0,0-.407,2.842.771.771,0,0,1-.136.57.69.69,0,0,1-.656.4c-.307-.023-.445-.247-.538-.488a3.059,3.059,0,0,1,.009-1.772,25.192,25.192,0,0,1,2.079-5.55c.83-1.769,2.816-5.3,2.763-5.353a47.758,47.758,0,0,0-3.513,4.486c-.866,1.255-1.665,2.554-2.471,3.848a8.694,8.694,0,0,1-.805,1.1,2.339,2.339,0,0,1-.275.269,1.069,1.069,0,0,1-1.21.3c-.465-.236-.474-.707-.44-1.16a12.992,12.992,0,0,1,.985-3.743c.582-1.487,2.072-4.414,2.057-4.426A31.645,31.645,0,0,0,391.625,131.552Z" transform="translate(-22.56 -7.41)" fill="#eb801f"/>
    <path id="Path_84" data-name="Path 84" d="M437.621,133.239c.509,0,1.057,0,1.321.515a1.491,1.491,0,0,1-.218,1.573,3.21,3.21,0,0,1-2.38,1.341c-.258.032-.5-.012-.552-.329a.494.494,0,0,1,.429-.589c.248-.067.5-.113.747-.187a1.488,1.488,0,0,0,.8-.546.564.564,0,0,0,.058-.608.443.443,0,0,0-.482-.206,2.768,2.768,0,0,0-2.171,1.34,1.339,1.339,0,0,0-.018,1.238,5.69,5.69,0,0,0,.562,1,3.162,3.162,0,0,1,.567,1.371,1.974,1.974,0,0,1-1.823,2.051,1.932,1.932,0,0,1-2.1-.989,2.4,2.4,0,0,1,.216-2.587,1.1,1.1,0,0,1,.314-.284.4.4,0,0,1,.515,0c.148.138.039.3-.032.43a2.263,2.263,0,0,0-.249,1.242,1.2,1.2,0,0,0,.827,1.091.857.857,0,0,0,.922-.145.885.885,0,0,0,.271-.934,3.213,3.213,0,0,0-.543-1.058,3.592,3.592,0,0,1-.7-1.634,2.1,2.1,0,0,1,.69-1.813A4.308,4.308,0,0,1,437.621,133.239Z" transform="translate(-28.222 -8.443)" fill="#eb801f"/>
    <path id="Path_85" data-name="Path 85" d="M414.918,139.189c-.226.345-.428.707-.63,1.067a1.586,1.586,0,0,1-.43.526.487.487,0,0,1-.807-.367,1.4,1.4,0,0,1,.133-.665,29.373,29.373,0,0,1,2.455-4.686,1.936,1.936,0,0,1,.3-.362c.171-.162.369-.3.611-.143a.522.522,0,0,1,.2.677,5.673,5.673,0,0,1-.544.917c-.056.1-.275.4-.223.454.068.07,1.307-1.156,1.956-1.624a3.342,3.342,0,0,1,.965-.54.535.535,0,0,1,.566.075.563.563,0,0,1,.087.6,1.9,1.9,0,0,1-.41.644,8.666,8.666,0,0,0-1.989,3.492,2.625,2.625,0,0,0,.246,2.062c.154.251.226.508-.07.712a.578.578,0,0,1-.778-.1,2.079,2.079,0,0,1-.588-1.426,5.248,5.248,0,0,1,.577-2.681,4.027,4.027,0,0,0,.364-.789A11.525,11.525,0,0,0,414.918,139.189Z" transform="translate(-25.909 -8.584)" fill="#eb801f"/>
    <path id="Path_86" data-name="Path 86" d="M403.48,139a3.522,3.522,0,0,1,.31-1.435,7.394,7.394,0,0,1,2.85-3.274,2,2,0,0,1,1.207-.37.779.779,0,0,1,.806.807,1.985,1.985,0,0,1-.238.943,5.763,5.763,0,0,1-3.4,2.95c-.372.133-.443.324-.243.666a1.134,1.134,0,0,0,1.255.416,4.858,4.858,0,0,0,2.437-1.58c.231-.232.442-.485.669-.72.157-.162.343-.285.563-.117s.139.392.017.574a7.872,7.872,0,0,1-2.59,2.384,3.73,3.73,0,0,1-1.844.618C404.064,140.889,403.461,140.284,403.48,139Zm1.477-1.174a4.4,4.4,0,0,0,2.528-2.163c.079-.145.159-.334,0-.475-.142-.127-.309-.028-.438.047A5.2,5.2,0,0,0,404.957,137.831Z" transform="translate(-24.745 -8.526)" fill="#eb801f"/>
    <path id="Path_87" data-name="Path 87" d="M426.141,139.333a9.562,9.562,0,0,1-.98,1.168,2.17,2.17,0,0,1-.547.407,1.077,1.077,0,0,1-1.613-.769,2.93,2.93,0,0,1,.123-1.6,8.271,8.271,0,0,1,2.046-3.413,1.911,1.911,0,0,1,.7-.487.406.406,0,0,1,.5.117.4.4,0,0,1,.023.513c-.212.286-.431.567-.648.849a8.877,8.877,0,0,0-1.662,2.807c-.082.287-.167.648.156.836s.6-.146.816-.382a9.56,9.56,0,0,0,1.809-3.126,3.385,3.385,0,0,1,.627-1.109c.2-.223.451-.394.751-.213s.287.451.188.755a13.581,13.581,0,0,1-.834,1.777,3.22,3.22,0,0,0-.4,1.338,1.572,1.572,0,0,0,.858,1.632.534.534,0,0,1,.351.653c-.085.312-.344.383-.639.379a1.58,1.58,0,0,1-1.4-1.144C426.264,140.026,426.224,139.712,426.141,139.333Z" transform="translate(-27.111 -8.608)" fill="#eb801f"/>
    <g id="Group_51" data-name="Group 51" transform="translate(200 63.814)">
      <path id="Path_88" data-name="Path 88" d="M285.815,116.716l0-20.46a.438.438,0,0,1,.436-.437h6.367a.377.377,0,0,0,.375-.375v-6.69a.376.376,0,0,0-.375-.376h-6.367a.438.438,0,0,1-.436-.437V78.533a.377.377,0,0,0-.375-.375h-6.649a.377.377,0,0,0-.375.375V118.74a5.833,5.833,0,0,0,5.815,5.825h8.387a.376.376,0,0,0,.375-.376v-6.66a.377.377,0,0,0-.375-.376h-6.367a.437.437,0,0,1-.437-.437" transform="translate(-209.536 -65.558)" fill="#fff" fill-rule="evenodd"/>
      <path id="Path_89" data-name="Path 89" d="M368.5,89.267A18.671,18.671,0,0,0,352.163,107.8V135.97a.377.377,0,0,0,.375.377h6.649a.377.377,0,0,0,.375-.377V107.8a11.258,11.258,0,0,1,13.106-11.115l.146.025a11.273,11.273,0,0,1-.146,22.2,11.438,11.438,0,0,1-1.857.153,11.321,11.321,0,0,1-1.856-.153l-.155-.026a11.155,11.155,0,0,1-4.783-2.106.374.374,0,0,0-.6.3v7.624a.364.364,0,0,0,.231.347,18.591,18.591,0,0,0,4.855,1.284,18.679,18.679,0,1,0,0-37.074" transform="translate(-218.505 -66.892)" fill="#fff" fill-rule="evenodd"/>
      <path id="Path_90" data-name="Path 90" d="M317.477,89.267a18.68,18.68,0,1,0,9.474,35.79.363.363,0,0,0,.231-.347v-7.624a.374.374,0,0,0-.6-.3,11.171,11.171,0,0,1-4.937,2.132,11.355,11.355,0,0,1-3.714,0l-.156-.026a11.27,11.27,0,0,1,3.868-22.2l.147.025a11.264,11.264,0,0,1,9.247,11.09v17.718a.376.376,0,0,0,.375.376h6.649a.377.377,0,0,0,.374-.376V107.8a18.658,18.658,0,0,0-20.958-18.537" transform="translate(-212.299 -66.892)" fill="#fff" fill-rule="evenodd"/>
      <path id="Path_91" data-name="Path 91" d="M391.43,86.3l-1.059,1.724a22.3,22.3,0,0,1,9.5,17.59l2.011.054A24.307,24.307,0,0,0,391.43,86.3" transform="translate(-223.151 -66.548)" fill="#e67d00"/>
      <path id="Path_92" data-name="Path 92" d="M389.018,90.227l-1.059,1.724a18.211,18.211,0,0,1,7.572,14.026l2.021.057a20.256,20.256,0,0,0-8.534-15.808" transform="translate(-222.858 -67.026)" fill="#e67d00"/>
      <path id="Path_93" data-name="Path 93" d="M201.4,90.709l32.439,34.2a.511.511,0,0,1-.29.856,29.512,29.512,0,0,1-33.02-34.814.512.512,0,0,1,.871-.244" transform="translate(-200 -67.065)" fill="#fff"/>
      <path id="Path_94" data-name="Path 94" d="M254.9,107.63l-9.181-9.681a.5.5,0,0,1-.119-.474,16.746,16.746,0,0,0-.722-10.6,15.615,15.615,0,0,0-10.208-9.15,16.278,16.278,0,0,0-20.551,11.864.509.509,0,0,1-.865.249l-9.268-9.767a.518.518,0,0,1-.083-.6A29.5,29.5,0,0,1,236.87,64.611a28.949,28.949,0,0,1,21.687,21.676,29.745,29.745,0,0,1-2.839,21.244.511.511,0,0,1-.816.1" transform="translate(-200.468 -63.814)" fill="#fff"/>
      <path id="Path_95" data-name="Path 95" d="M248.561,112.776H234.129a.508.508,0,0,0-.368.857l14.2,14.941a.51.51,0,0,0,.368.159h14.427a.509.509,0,0,0,.368-.858l-14.192-14.941a.508.508,0,0,0-.368-.158" transform="translate(-204.088 -69.768)" fill="#e67d00"/>
    </g>
  </g>
</svg>
