<svg xmlns="http://www.w3.org/2000/svg" width="254.349" height="98.838" viewBox="0 0 254.349 98.838">
  <g id="Group_584" data-name="Group 584" transform="translate(-7830.716 -237.186)">
    <path id="Path_1166" data-name="Path 1166" d="M7939.265,309.985l0-29.115a.623.623,0,0,1,.621-.623h9.06a.535.535,0,0,0,.533-.534v-9.52a.536.536,0,0,0-.533-.535h-9.06a.622.622,0,0,1-.621-.622V255.65a.537.537,0,0,0-.534-.534h-9.462a.537.537,0,0,0-.534.534v57.216a8.3,8.3,0,0,0,8.275,8.289h11.936a.536.536,0,0,0,.533-.535v-9.478a.536.536,0,0,0-.533-.535h-9.062a.622.622,0,0,1-.621-.622" fill="#222240" fill-rule="evenodd"/>
    <path id="Path_1167" data-name="Path 1167" d="M8044.171,269.027a26.57,26.57,0,0,0-23.251,26.379v40.083a.536.536,0,0,0,.533.535h9.463a.537.537,0,0,0,.534-.535V295.406a16.016,16.016,0,0,1,18.65-15.817l.208.036a16.042,16.042,0,0,1-.208,31.6,16.112,16.112,0,0,1-5.283,0l-.221-.037a15.882,15.882,0,0,1-6.807-3,.533.533,0,0,0-.856.425v10.849a.516.516,0,0,0,.329.494,26.417,26.417,0,0,0,6.909,1.827,26.582,26.582,0,1,0,0-52.758" fill="#222240" fill-rule="evenodd"/>
    <path id="Path_1168" data-name="Path 1168" d="M7980.389,269.027a26.583,26.583,0,1,0,13.483,50.931.515.515,0,0,0,.329-.494V308.615a.532.532,0,0,0-.856-.425,15.9,15.9,0,0,1-7.027,3.033,16.115,16.115,0,0,1-5.284,0l-.222-.037a16.037,16.037,0,0,1,5.5-31.6l.209.036a16.029,16.029,0,0,1,13.158,15.781V320.62a.536.536,0,0,0,.534.535h9.463a.535.535,0,0,0,.532-.535V295.406a26.548,26.548,0,0,0-29.825-26.379" fill="#222240" fill-rule="evenodd"/>
    <path id="Path_1169" data-name="Path 1169" d="M8070.187,265.3l-1.507,2.454A31.727,31.727,0,0,1,8082.2,292.78l2.861.076a34.585,34.585,0,0,0-14.878-27.561" fill="#e67d00"/>
    <path id="Path_1170" data-name="Path 1170" d="M8067.172,270.2l-1.507,2.453a25.919,25.919,0,0,1,10.775,19.96l2.875.08a28.822,28.822,0,0,0-12.143-22.493" fill="#e67d00"/>
    <path id="Path_1171" data-name="Path 1171" d="M7832.713,270.832l46.163,48.672a.727.727,0,0,1-.413,1.218,41.994,41.994,0,0,1-46.989-49.542.727.727,0,0,1,1.239-.348" fill="#222240"/>
    <path id="Path_1172" data-name="Path 1172" d="M7908.18,299.538l-13.066-13.776a.708.708,0,0,1-.168-.675A23.83,23.83,0,0,0,7893.918,270a22.221,22.221,0,0,0-14.525-13.022,23.166,23.166,0,0,0-29.246,16.883.724.724,0,0,1-1.231.355l-13.189-13.9a.738.738,0,0,1-.117-.847,41.976,41.976,0,0,1,46.909-21.151,41.194,41.194,0,0,1,30.862,30.845,42.325,42.325,0,0,1-4.04,30.232.726.726,0,0,1-1.161.141" fill="#222240"/>
    <path id="Path_1173" data-name="Path 1173" d="M7894,298.389h-20.539a.722.722,0,0,0-.523,1.219l20.2,21.263a.723.723,0,0,0,.524.225H7914.2a.723.723,0,0,0,.524-1.22l-20.2-21.263a.722.722,0,0,0-.523-.224" fill="#e67d00"/>
  </g>
</svg>
