<svg xmlns="http://www.w3.org/2000/svg" width="98.741" height="98.781" viewBox="0 0 98.741 98.781">
  <g id="Group_207" data-name="Group 207" transform="translate(-3671.423 -3209.456)">
    <path id="Path_308" data-name="Path 308" d="M3684.569,3279.589c0-6.342-.009-12.683.013-19.025a1.544,1.544,0,0,0-.768-1.487c-9.163-6.222-13.159-14.941-12.27-25.9a26.422,26.422,0,0,1,8.321-17.722c9.427-8.84,23.08-7.778,31.39,2.356,9.3,11.338,9.1,31.505-6.313,41.366a1.334,1.334,0,0,0-.628,1.352q.014,18.768,0,37.536a9.865,9.865,0,1,1-19.722.553c-.086-6.34-.019-12.683-.019-19.025Zm6.584-1.609v17.587c0,.96-.026,1.921.01,2.879a3.281,3.281,0,0,0,6.5.559,7.347,7.347,0,0,0,.074-1.433q.006-19.8-.009-39.6a3.772,3.772,0,0,1,2.19-3.625,24.839,24.839,0,0,0,3.939-2.584c10.17-8.409,8.452-24.185.869-31.392-6.053-5.753-14.6-5.784-20.581.051a20.866,20.866,0,0,0-6.032,12.958c-1.073,8.954,2.882,16.729,10.815,20.95a3.862,3.862,0,0,1,2.244,3.8C3691.128,3264.746,3691.153,3271.363,3691.153,3277.98Z" fill="#e57c00"/>
    <path id="Path_309" data-name="Path 309" d="M3737.241,3261.833a16.618,16.618,0,0,1-10.81-7.71,15.632,15.632,0,0,1-2.349-8.2q-.027-16.458-.006-32.914a3.3,3.3,0,1,1,6.578.055q.009,16.045,0,32.091c0,5.982,3.917,10.09,9.885,10.393,2.04.1,3.28,1.486,3.28,3.692q.006,19.233.009,38.468a5.8,5.8,0,0,0,.175,1.62,3.258,3.258,0,0,0,3.481,2.289,3.328,3.328,0,0,0,2.905-3.007c.032-.375.015-.754.015-1.131q0-18.976,0-37.954c0-2.715,1.1-3.864,3.814-3.993a9.835,9.835,0,0,0,9.338-9.777c.045-10.8.012-21.6.023-32.4a5.725,5.725,0,0,1,.184-1.619,3.216,3.216,0,0,1,3.4-2.264,3.328,3.328,0,0,1,2.975,2.937,10.911,10.911,0,0,1,.021,1.131q0,15.686,0,31.371c0,8.438-4.683,14.586-12.8,16.814-.095.026-.184.07-.365.14v1.2q0,17.538,0,35.074a9.867,9.867,0,1,1-19.731.289c-.059-8.262-.015-16.525-.016-24.788Z" fill="#e57c00"/>
    <path id="Path_310" data-name="Path 310" d="M3737.241,3229.218q0-8.022,0-16.045c0-2.2,1.315-3.689,3.258-3.706a3.331,3.331,0,0,1,3.323,3.646q.006,16.149.006,32.3a3.3,3.3,0,0,1-1.837,3.2,3.063,3.063,0,0,1-3.392-.291,3.367,3.367,0,0,1-1.366-2.947C3737.25,3239.984,3737.241,3234.6,3737.241,3229.218Z" fill="#e57c00"/>
    <path id="Path_311" data-name="Path 311" d="M3750.409,3229.218q0-8.024,0-16.046c0-2.2,1.315-3.688,3.259-3.705a3.331,3.331,0,0,1,3.322,3.647q.006,16.147.006,32.3a3.3,3.3,0,0,1-1.837,3.2,3.063,3.063,0,0,1-3.392-.291,3.368,3.368,0,0,1-1.366-2.948C3750.418,3239.983,3750.409,3234.6,3750.409,3229.218Z" fill="#e57c00"/>
  </g>
</svg>
