<svg xmlns="http://www.w3.org/2000/svg" width="51.862" height="51.865" viewBox="0 0 51.862 51.865">
  <g id="Group_828" data-name="Group 828" transform="translate(-4274.995 -5299.37)">
    <g id="Group_827" data-name="Group 827">
      <path id="Path_1326" data-name="Path 1326" d="M4319.644,5320.554c-.1-.244-.168-.424-.248-.6q-4.124-9-8.248-18c-.427-.931-.748-1.048-1.689-.616q-5.883,2.7-11.766,5.4a2.456,2.456,0,0,1-.552.208.783.783,0,0,1-.957-.508.8.8,0,0,1,.331-1.037,2.7,2.7,0,0,1,.383-.2q5.98-2.745,11.961-5.487a2.611,2.611,0,0,1,3.815,1.426q4.34,9.464,8.668,18.931a.685.685,0,0,0,.759.49c.664-.038,1.332-.013,2-.01a2.6,2.6,0,0,1,2.755,2.737q.006,12.617,0,25.231a2.582,2.582,0,0,1-2.723,2.71q-9.209.007-18.42,0h-27.766a2.64,2.64,0,0,1-2.949-2.972q0-12.345,0-24.69c0-1.867.72-2.7,2.581-3.036a.814.814,0,0,0,.434-.4q3.42-5.938,6.823-11.888c.4-.7.8-1.407,1.207-2.108a2.609,2.609,0,0,1,3.89-1.068c2.015,1.15,4.03,2.3,6.035,3.469a.889.889,0,0,0,.937.049c2.574-1.2,5.16-2.378,7.742-3.562.88-.4,1.146-.319,1.612.507a3.745,3.745,0,0,0,4.6,1.7c.862-.31,1.144-.195,1.524.633,1.837,4,3.683,8,5.5,12.019.235.52.508.766,1.076.673A4.743,4.743,0,0,1,4319.644,5320.554ZM4300.92,5349.5h22.9c1.072,0,1.306-.23,1.306-1.288v-24.633c0-1.065-.235-1.3-1.3-1.3h-45.8c-1.069,0-1.306.234-1.306,1.292v24.632c0,1.066.232,1.3,1.3,1.3Zm-13.947-35.343-3.631,6.341h23.852l-14-8.026A5.612,5.612,0,0,1,4286.973,5314.162Zm11.3-4.305,17.75,10.179c-.114-.284-.166-.433-.231-.575-1.521-3.318-3.053-6.631-4.554-9.958a.576.576,0,0,0-.764-.4,5.265,5.265,0,0,1-4.354-1.11c-.436-.342-.831-.735-1.294-1.149Zm14.946,10.695.018-.1c-.089-.057-.176-.119-.268-.171q-11.936-6.846-23.872-13.69c-.76-.436-1.132-.328-1.579.451q-3.72,6.483-7.437,12.967c-.086.15-.158.308-.278.545a5.254,5.254,0,0,1,.752,0,.988.988,0,0,0,1.134-.627c1.313-2.357,2.67-4.689,4.012-7.03.47-.818.742-.9,1.617-.5a3.737,3.737,0,0,0,4.658-1.23c.6-.849.846-.906,1.731-.4q8.307,4.764,16.617,9.527a1.385,1.385,0,0,0,.586.236C4311.681,5320.569,4312.451,5320.552,4313.221,5320.552Z" fill="#575756"/>
      <path id="Path_1327" data-name="Path 1327" d="M4321.647,5340.9c.008-.168.022-.327.022-.485,0-3.008-.006-6.015.009-9.023,0-.386-.091-.527-.5-.632a5.967,5.967,0,0,1-4.564-4.615c-.03-.118-.052-.238-.082-.379h-31.2a6.2,6.2,0,0,1-5.126,5.123V5340.9a6.2,6.2,0,0,1,5.125,5.151H4300.5a4.354,4.354,0,0,1,.486.008.858.858,0,0,1-.016,1.713,4.09,4.09,0,0,1-.431.007h-15.666c-.947,0-1.183-.218-1.243-1.143a4.34,4.34,0,0,0-4.069-4.036c-.861-.051-1.107-.307-1.108-1.169q0-5.539,0-11.075c0-.852.26-1.118,1.119-1.163a4.332,4.332,0,0,0,4.058-4.043c.057-.9.307-1.135,1.2-1.135h32.195c.889,0,1.138.241,1.194,1.141a4.336,4.336,0,0,0,4.065,4.037c.855.045,1.112.312,1.113,1.169q0,5.538,0,11.076c0,.855-.25,1.111-1.115,1.162a4.338,4.338,0,0,0-4.065,4.1c-.044.8-.318,1.081-1.086,1.081q-6.185,0-12.37,0c-.681,0-1.062-.324-1.055-.876.007-.534.376-.849,1.026-.85q3.24-.006,6.482,0h5.3A6.2,6.2,0,0,1,4321.647,5340.9Z" fill="#575756"/>
      <path id="Path_1328" data-name="Path 1328" d="M4300.928,5343.673a7.78,7.78,0,1,1,7.776-7.753A7.789,7.789,0,0,1,4300.928,5343.673Zm-.024-1.731a6.049,6.049,0,1,0-6.027-6.068A6.06,6.06,0,0,0,4300.9,5341.942Z" fill="#575756"/>
    </g>
  </g>
</svg>
