<svg xmlns="http://www.w3.org/2000/svg" width="35" height="33.54" viewBox="0 0 35 33.54">
  <path id="Path_1849" data-name="Path 1849" d="M3846.183,1009.309l3.866,9.049.469,1.1,1.189.108,9.782.888-7.4,6.485-.9.785.264,1.162,2.18,9.6-8.432-5.042-1.026-.614-1.027.614-8.432,5.041,2.181-9.6.263-1.162-.9-.785-7.4-6.485,9.783-.888,1.189-.108.469-1.1,3.865-9.049m0-2.215a1.856,1.856,0,0,0-1.711,1.13l-3.993,9.348-10.1.917a1.863,1.863,0,0,0-1.057,3.255l7.637,6.7-2.252,9.919a1.861,1.861,0,0,0,2.768,2.011l8.713-5.21,8.71,5.21a1.862,1.862,0,0,0,2.77-2.011l-2.252-9.919,7.637-6.7a1.863,1.863,0,0,0-1.057-3.255l-10.1-.917-3.993-9.348a1.861,1.861,0,0,0-1.712-1.13Z" transform="translate(-3828.683 -1007.094)" fill="#575756"/>
</svg>
