<svg xmlns="http://www.w3.org/2000/svg" width="90.523" height="90.523" viewBox="0 0 90.523 90.523">
  <g id="_x35_0_x2C__Street_Food_x2C__food_art_x2C__food_stand_x2C__food_stall_x2C__fast_food" transform="translate(-1 -1)">
    <g id="Group_683" data-name="Group 683" transform="translate(1 1)">
      <path id="Path_1196" data-name="Path 1196" d="M109.1,317.624h-8.875a1.775,1.775,0,1,1,0-3.55h7.1V294.55H34.55v19.525H75.374a1.775,1.775,0,1,1,0,3.55h-42.6A1.775,1.775,0,0,1,31,315.849V292.775A1.775,1.775,0,0,1,32.775,291H109.1a1.775,1.775,0,0,1,1.775,1.775v23.075A1.775,1.775,0,0,1,109.1,317.624Z" transform="translate(-25.675 -239.526)" fill="#e57c00"/>
      <path id="Path_1197" data-name="Path 1197" d="M41.65,436.975H32.775A1.775,1.775,0,0,1,31,435.2V422.775A1.775,1.775,0,0,1,32.775,421H41.65a1.775,1.775,0,0,1,1.775,1.775V435.2A1.775,1.775,0,0,1,41.65,436.975Zm-7.1-3.55h5.325V424.55H34.55Z" transform="translate(-25.675 -346.452)" fill="#e57c00"/>
      <path id="Path_1198" data-name="Path 1198" d="M285.2,379.4a14.2,14.2,0,1,1,14.2-14.2A14.216,14.216,0,0,1,285.2,379.4Zm0-24.849a10.65,10.65,0,1,0,10.65,10.65A10.662,10.662,0,0,0,285.2,354.55Z" transform="translate(-223.076 -288.876)" fill="#e57c00"/>
      <path id="Path_1199" data-name="Path 1199" d="M318.1,405.2a7.1,7.1,0,1,1,7.1-7.1A7.108,7.108,0,0,1,318.1,405.2Zm0-10.65a3.55,3.55,0,1,0,3.55,3.55A3.554,3.554,0,0,0,318.1,394.55Z" transform="translate(-255.976 -321.777)" fill="#e57c00"/>
      <path id="Path_1200" data-name="Path 1200" d="M86.2,261.65H6.325a5.325,5.325,0,1,1,0-10.65H86.2a5.325,5.325,0,1,1,0,10.65Zm-79.873-7.1a1.775,1.775,0,0,0,0,3.55H86.2a1.775,1.775,0,0,0,0-3.55Z" transform="translate(-1 -206.626)" fill="#e57c00"/>
      <path id="Path_1201" data-name="Path 1201" d="M89.748,18.75H2.775A1.775,1.775,0,0,1,1.27,16.034l8.875-14.2A1.775,1.775,0,0,1,11.65,1H80.873a1.775,1.775,0,0,1,1.505.834l8.875,14.2a1.775,1.775,0,0,1-1.505,2.716ZM5.978,15.2H86.546L79.889,4.55H12.634Z" transform="translate(-1 -1)" fill="#e57c00"/>
      <path id="Path_1202" data-name="Path 1202" d="M13.659,95.189A12.639,12.639,0,0,1,1.018,82.86a1.775,1.775,0,1,1,3.548-.131,9.1,9.1,0,0,0,18.187,0,1.775,1.775,0,0,1,3.549.07A12.641,12.641,0,0,1,13.659,95.189Z" transform="translate(-1.013 -66.79)" fill="#e57c00"/>
      <path id="Path_1203" data-name="Path 1203" d="M136.163,95.2A12.641,12.641,0,0,1,123.52,82.81a1.775,1.775,0,1,1,3.549-.07,9.1,9.1,0,0,0,18.187,0,1.775,1.775,0,0,1,3.549.07A12.641,12.641,0,0,1,136.163,95.2Z" transform="translate(-101.773 -66.8)" fill="#e57c00"/>
      <path id="Path_1204" data-name="Path 1204" d="M258.663,95.2A12.641,12.641,0,0,1,246.02,82.81a1.775,1.775,0,1,1,3.549-.07,9.1,9.1,0,0,0,18.187,0,1.775,1.775,0,0,1,3.549.07A12.645,12.645,0,0,1,258.663,95.2Z" transform="translate(-202.53 -66.8)" fill="#e57c00"/>
      <path id="Path_1205" data-name="Path 1205" d="M381.163,95.185A12.641,12.641,0,0,1,368.52,82.8a1.775,1.775,0,1,1,3.549-.07,9.1,9.1,0,0,0,18.187,0,1.776,1.776,0,1,1,3.547.152A12.64,12.64,0,0,1,381.163,95.185Z" transform="translate(-303.287 -66.786)" fill="#e57c00"/>
      <path id="Path_1206" data-name="Path 1206" d="M462.775,157.034A1.775,1.775,0,0,1,461,155.259V134.215a1.775,1.775,0,0,1,3.55,0v21.044A1.775,1.775,0,0,1,462.775,157.034Z" transform="translate(-379.352 -109.11)" fill="#e57c00"/>
      <path id="Path_1207" data-name="Path 1207" d="M32.775,157.034A1.775,1.775,0,0,1,31,155.259V134.215a1.775,1.775,0,1,1,3.55,0v21.044A1.775,1.775,0,0,1,32.775,157.034Z" transform="translate(-25.675 -109.11)" fill="#e57c00"/>
      <path id="Path_1208" data-name="Path 1208" d="M299.4,221.65H272.775A1.775,1.775,0,0,1,271,219.875v-7.1A1.775,1.775,0,0,1,272.775,211H299.4a1.775,1.775,0,0,1,1.775,1.775v7.1A1.775,1.775,0,0,1,299.4,221.65ZM274.55,218.1h23.074v-3.55H274.55Z" transform="translate(-223.076 -173.726)" fill="#e57c00"/>
      <path id="Path_1209" data-name="Path 1209" d="M83.425,196.975H72.775A1.775,1.775,0,0,1,71,195.2V182.775A1.775,1.775,0,0,1,72.775,181h10.65a1.775,1.775,0,0,1,1.775,1.775V195.2A1.775,1.775,0,0,1,83.425,196.975Zm-8.875-3.55h7.1V184.55h-7.1Z" transform="translate(-58.575 -149.051)" fill="#e57c00"/>
      <path id="Path_1210" data-name="Path 1210" d="M183.425,196.975h-10.65A1.775,1.775,0,0,1,171,195.2V182.775A1.775,1.775,0,0,1,172.775,181h10.65a1.775,1.775,0,0,1,1.775,1.775V195.2A1.775,1.775,0,0,1,183.425,196.975Zm-8.875-3.55h7.1V184.55h-7.1Z" transform="translate(-140.826 -149.051)" fill="#e57c00"/>
    </g>
  </g>
</svg>
