 <svg xmlns="http://www.w3.org/2000/svg" width="54.89" height="54.95" viewBox="0 0 54.89 54.95">
  <g id="Group_838" data-name="Group 838" transform="translate(-5294.683 -5297.662)">
    <path id="Path_1335" data-name="Path 1335" d="M5309.047,5352.612a45.856,45.856,0,0,1-10.3-1.2,5.117,5.117,0,0,1-4.053-5.136l0-14.3c0-2.558-.008-5.118.009-7.678a5.15,5.15,0,0,1,5.033-5.2,4.941,4.941,0,0,1,.6.037c.631.079,1.26.178,1.889.277.772.123,1.542.244,2.32.33a41.24,41.24,0,0,0,17.015-1.665,46.521,46.521,0,0,1,13.828-2.16c.484,0,.97.007,1.457.024a41.983,41.983,0,0,1,8.756,1.181,5.045,5.045,0,0,1,3.976,5.079q.017,10.893,0,21.79a5.1,5.1,0,0,1-5.146,5.38,6.323,6.323,0,0,1-1.151-.108,42.844,42.844,0,0,0-7.858-.732,45.717,45.717,0,0,0-13.527,2.118A43.268,43.268,0,0,1,5309.047,5352.612Zm-9.222-31.289a2.891,2.891,0,0,0-2.959,3.194v21.541a3.018,3.018,0,0,0,2.618,3.284,44.216,44.216,0,0,0,9.554,1.069,41.933,41.933,0,0,0,12.491-1.918,46.466,46.466,0,0,1,13.823-2.156,45.3,45.3,0,0,1,8.356.786,3.814,3.814,0,0,0,.719.07,2.923,2.923,0,0,0,2.963-3.138l0-21.665a2.981,2.981,0,0,0-2.552-3.2,44.063,44.063,0,0,0-9.71-1.117,40.024,40.024,0,0,0-11.851,1.794,49.048,49.048,0,0,1-14.5,2.285,44.879,44.879,0,0,1-8.173-.756A4.272,4.272,0,0,0,5299.825,5321.323Z" fill="#575756"/>
    <path id="Path_1336" data-name="Path 1336" d="M5322.122,5312.024c-.8,0-1.08-.695-1.08-1.339v-9.144l-2.243,2.09a1.121,1.121,0,0,1-.735.283,1.066,1.066,0,0,1-.774-.34,1.033,1.033,0,0,1-.03-1.45q2.058-2.124,4.183-4.179a.97.97,0,0,1,.68-.283,1.036,1.036,0,0,1,.716.3q2.123,2.052,4.18,4.183a1.042,1.042,0,0,1-.051,1.476,1.058,1.058,0,0,1-.748.313,1.129,1.129,0,0,1-.757-.3l-.838-1.058-1.17.543-.2.621-.04.574,0,6.4c0,.633-.288,1.311-1.085,1.311Z" fill="#575756"/>
    <path id="Path_1337" data-name="Path 1337" d="M5322.129,5342.434a8.182,8.182,0,1,1,8.182-8.209,8.208,8.208,0,0,1-8.182,8.209Zm.027-14.187a6,6,0,0,0-4.3,10.225,5.922,5.922,0,0,0,4.209,1.788,6.007,6.007,0,0,0,.161-12.013Z" fill="#575756"/>
    <path id="Path_1338" data-name="Path 1338" d="M5336.346,5326.215a1.1,1.1,0,0,1-1.113-1.074,1.075,1.075,0,0,1,1.122-1.1l1.984-.013,1.982.013a1.086,1.086,0,1,1-.024,2.169l-3.243.008Z" fill="#575756"/>
    <path id="Path_1339" data-name="Path 1339" d="M5303.933,5344.461a1.087,1.087,0,1,1,.027-2.17h3.95a1.086,1.086,0,1,1-.013,2.17l-1.929.012Z" fill="#575756"/>
  </g>
</svg>
